<?xml version="1.0" encoding="UTF-8" standalone="no"?><!DOCTYPE svg PUBLIC "-//W3C//DTD SVG 1.1//EN" "http://www.w3.org/Graphics/SVG/1.1/DTD/svg11.dtd"><svg width="100%" height="100%" viewBox="0 0 295 501" version="1.1" xmlns="http://www.w3.org/2000/svg" xmlns:xlink="http://www.w3.org/1999/xlink" xml:space="preserve" xmlns:serif="http://www.serif.com/" style="fill-rule:evenodd;clip-rule:evenodd;stroke-linejoin:round;stroke-miterlimit:1.41421;"><path d="M257.284,194.826l-0.167,0.725l-0.47,2.039l-0.573,2.49l-0.585,2.547l-0.506,2.209l-0.338,1.479l-0.116,0.501l-0.119,0.508l-0.121,0.508l-0.122,0.509l-0.125,0.509l-0.126,0.51l-0.127,0.51l-0.13,0.511l-0.131,0.511l-0.133,0.512l-0.135,0.512l-0.136,0.513l-0.138,0.512l-0.14,0.514l-0.141,0.513l-0.143,0.514l-0.144,0.515l-0.146,0.514l-0.148,0.515l-0.149,0.516l-0.15,0.515l-0.152,0.516l-0.154,0.516l-0.155,0.517l-0.156,0.516l-0.158,0.517l-0.159,0.517l-0.161,0.517l-0.162,0.518l-0.164,0.517l-0.165,0.518l-0.166,0.518l-0.167,0.518l-0.169,0.518l-0.17,0.518l-0.172,0.518l-0.172,0.518l-0.174,0.519l-0.175,0.518l-0.177,0.518l-0.177,0.519l-0.179,0.518l-0.18,0.518l-0.181,0.519l-0.182,0.518l-0.184,0.518l-0.184,0.518l-0.186,0.518l-0.186,0.518l-0.188,0.518l-0.189,0.517l-0.189,0.518l-0.191,0.517l-0.192,0.517l-0.192,0.517l-0.194,0.517l-0.195,0.516l-0.195,0.517l-0.197,0.516l-0.197,0.515l-0.198,0.516l-0.2,0.515l-0.2,0.515l-0.2,0.514l-0.202,0.514l-0.203,0.514l-0.203,0.513l-0.204,0.513l-0.205,0.513l-0.205,0.512l-0.207,0.512l-0.207,0.511l-0.207,0.511l-0.209,0.511l-0.209,0.51l-0.209,0.509l-0.211,0.509l-0.211,0.508l-0.211,0.508l-0.213,0.509l-0.425,1.011l-0.429,1.01l-0.43,1.008l-0.432,1.006l-0.434,1.002l-0.435,0.999l-0.438,0.997l-0.438,0.993l-0.44,0.991l-0.441,0.986l-0.442,0.984l-0.443,0.98l-0.444,0.976l-0.444,0.972l-0.445,0.968l-0.446,0.964l-0.445,0.961l-0.446,0.955l-0.446,0.952l-0.446,0.946l-0.446,0.943l-0.445,0.937l-0.445,0.932l-0.447,0.934l-0.116,0.236l-0.122,0.246l-0.126,0.251l-0.129,0.256l-0.133,0.261l-0.136,0.266l-0.14,0.272l-0.146,0.281l-0.296,0.566l-0.313,0.593l-0.327,0.616l-0.343,0.639l-0.357,0.663l-0.372,0.685l-0.386,0.709l-0.401,0.731l-0.414,0.754l-0.429,0.777l-0.442,0.8l-0.21,0.378l-0.259,0.435l-0.495,0.827l-0.508,0.85l-1.055,1.757l-1.106,1.84l-0.802,1.331l0.255,1.079l0.3,1.266l0.298,1.269l0.299,1.273l0.298,1.276l0.297,1.279l0.296,1.282l0.296,1.285l0.295,1.289l0.295,1.29l0.293,1.294l0.293,1.296l0.291,1.298l0.075,0.334l0.215,0.967l0.288,1.303l0.287,1.305l0.286,1.308l0.285,1.309l0.283,1.311l0.282,1.313l0.28,1.314l0.279,1.316l0.278,1.317l0.275,1.318l0.274,1.32l0.272,1.32l0.27,1.322l0.269,1.323l0.266,1.323l0.264,1.324l0.263,1.324l0.26,1.325l0.258,1.326l0.255,1.325l0.254,1.326l0.251,1.326l0.248,1.326l0.246,1.326l0.244,1.325l0.241,1.325l0.238,1.325l0.235,1.324l0.233,1.323l0.23,1.323l0.227,1.322l0.223,1.321l0.221,1.32l0.218,1.319l0.214,1.318l0.212,1.316l0.207,1.311l0.104,0.661l0.101,0.656l0.101,0.656l0.101,0.656l0.099,0.656l0.098,0.654l0.098,0.655l0.097,0.654l0.095,0.653l0.095,0.653l0.094,0.653l0.093,0.652l0.092,0.651l0.091,0.651l0.091,0.651l0.089,0.65l0.088,0.649l0.087,0.649l0.087,0.648l0.085,0.647l0.084,0.647l0.084,0.647l0.082,0.645l0.081,0.646l0.08,0.644l0.08,0.644l0.078,0.643l0.077,0.642l0.076,0.642l0.049,0.416l0.025,0.225l0.07,0.641l0.069,0.64l0.068,0.639l0.067,0.639l0.065,0.637l0.065,0.637l0.063,0.636l0.063,0.636l0.061,0.634l0.06,0.634l0.059,0.633l0.058,0.632l0.057,0.631l0.055,0.63l0.054,0.629l0.053,0.629l0.052,0.627l0.051,0.627l0.049,0.626l0.048,0.625l0.047,0.624l0.046,0.623l0.044,0.622l0.044,0.621l0.041,0.62l0.041,0.619l0.039,0.618l0.038,0.617l0.037,0.616l0.036,0.615l0.034,0.614l0.032,0.613l0.032,0.612l0.03,0.611l0.028,0.61l0.028,0.609l0.026,0.607l0.024,0.607l0.023,0.605l0.022,0.605l0.02,0.603l0.019,0.602l0.018,0.601l0.016,0.6l0.014,0.599l0.013,0.597l0.012,0.596l0.01,0.596l0.008,0.594l0.007,0.592l0.006,0.592l0.004,0.59l0.002,0.589l0.001,0.588l-0.001,0.587l-0.002,0.586l-0.004,0.584l-0.005,0.583l-0.007,0.582l-0.009,0.58l-0.01,0.579l-0.012,0.578l-0.014,0.577l-0.015,0.575l-0.017,0.574l-0.019,0.573l-0.02,0.571l-0.022,0.57l-0.024,0.569l-0.026,0.568l-0.027,0.566l-0.029,0.565l-0.031,0.563l-0.033,0.562l-0.034,0.561l-0.037,0.56l-0.038,0.558l-0.04,0.556l-0.042,0.556l-0.044,0.554l-0.042,0.505l-0.004,0.047l-0.058,0.551l-0.059,0.548l-0.062,0.548l-0.063,0.546l-0.065,0.544l-0.067,0.543l-0.069,0.542l-0.071,0.54l-0.073,0.538l-0.076,0.537l-0.077,0.536l-0.079,0.534l-0.081,0.533l-0.084,0.531l-0.085,0.529l-0.088,0.528l-0.09,0.527l-0.092,0.525l-0.094,0.523l-0.096,0.522l-0.099,0.521l-0.101,0.518l-0.103,0.518l-0.106,0.516l-0.108,0.514l-0.11,0.513l-0.113,0.511l-0.115,0.509l-0.117,0.508l-0.12,0.507l-0.123,0.505l-0.124,0.503l-0.128,0.502l-0.13,0.5l-0.133,0.498l-0.135,0.497l-0.138,0.496l-0.141,0.493l-0.143,0.493l-0.146,0.49l-0.149,0.489l-0.152,0.487l-0.154,0.486l-0.158,0.484l-0.16,0.482l-0.164,0.481l-0.166,0.479l-0.169,0.477l-0.173,0.476l-0.176,0.474l-0.178,0.472l-0.182,0.47l-0.185,0.469l-0.189,0.467l-0.192,0.465l-0.195,0.464l-0.193,0.448l-0.106,0.243l-0.101,0.23l-0.102,0.229l-0.104,0.229l-0.104,0.228l-0.105,0.228l-0.105,0.227l-0.107,0.227l-0.108,0.226l-0.108,0.226l-0.11,0.225l-0.11,0.225l-0.111,0.225l-0.113,0.224l-0.113,0.223l-0.114,0.223l-0.115,0.222l-0.116,0.222l-0.117,0.221l-0.118,0.221l-0.119,0.221l-0.12,0.219l-0.121,0.22l-0.122,0.218l-0.123,0.219l-0.124,0.217l-0.124,0.217l-0.126,0.217l-0.127,0.216l-0.128,0.215l-0.129,0.215l-0.13,0.214l-0.131,0.214l-0.133,0.213l-0.133,0.212l-0.134,0.212l-0.135,0.212l-0.137,0.21l-0.137,0.21l-0.139,0.21l-0.139,0.208l-0.141,0.209l-0.142,0.207l-0.143,0.207l-0.144,0.206l-0.145,0.206l-0.146,0.204l-0.148,0.204l-0.148,0.204l-0.15,0.203l-0.151,0.202l-0.152,0.201l-0.153,0.2l-0.154,0.2l-0.155,0.199l-0.157,0.199l-0.158,0.197l-0.158,0.197l-0.16,0.196l-0.169,0.205l-0.192,0.229l-0.202,0.237l-0.203,0.235l-0.205,0.232l-0.206,0.23l-0.208,0.228l-0.21,0.226l-0.211,0.223l-0.212,0.222l-0.215,0.219l-0.215,0.218l-0.217,0.216l-0.219,0.213l-0.22,0.212l-0.222,0.21l-0.223,0.209l-0.224,0.206l-0.226,0.205l-0.227,0.203l-0.229,0.201l-0.23,0.2l-0.232,0.198l-0.232,0.196l-0.235,0.195l-0.235,0.193l-0.237,0.191l-0.238,0.19l-0.24,0.188l-0.241,0.187l-0.243,0.186l-0.243,0.184l-0.245,0.182l-0.247,0.181l-0.247,0.18l-0.249,0.178l-0.251,0.176l-0.251,0.175l-0.253,0.174l-0.254,0.173l-0.256,0.171l-0.257,0.169l-0.258,0.168l-0.259,0.167l-0.261,0.166l-0.262,0.164l-0.263,0.162l-0.265,0.162l-0.265,0.16l-0.268,0.158l-0.268,0.158l-0.269,0.156l-0.271,0.154l-0.272,0.154l-0.273,0.151l-0.275,0.151l-0.276,0.149l-0.277,0.148l-0.278,0.147l-0.279,0.145l-0.281,0.143l-0.282,0.143l-0.283,0.141l-0.284,0.14l-0.285,0.138l-0.287,0.137l-0.288,0.136l-0.289,0.134l-0.29,0.133l-0.291,0.131l-0.293,0.13l-0.293,0.129l-0.295,0.127l-0.296,0.126l-0.297,0.125l-0.299,0.123l-0.299,0.121l-0.301,0.12l-0.301,0.119l-0.303,0.117l-0.304,0.116l-0.305,0.114l-0.306,0.113l-0.308,0.112l-0.308,0.11l-0.309,0.108l-0.311,0.107l-0.312,0.105l-0.312,0.104l-0.314,0.102l-0.315,0.101l-0.316,0.099l-0.317,0.098l-0.318,0.096l-0.319,0.094l-0.32,0.093l-0.321,0.091l-0.322,0.09l-0.324,0.088l-0.324,0.086l-0.325,0.085l-0.326,0.083l-0.327,0.081l-0.329,0.079l-0.329,0.078l-0.33,0.076l-0.331,0.075l-0.332,0.072l-0.333,0.071l-0.334,0.069l-0.335,0.068l-0.336,0.065l-0.336,0.064l-0.338,0.061l-0.339,0.06l-0.339,0.059l-0.34,0.056l-0.342,0.054l-0.342,0.052l-0.343,0.051l-0.344,0.048l-0.344,0.047l-0.346,0.044l-0.346,0.043l-0.334,0.039l-0.014,0.002l-0.348,0.037l-0.349,0.035l-0.35,0.033l-0.35,0.031l-0.351,0.029l-0.352,0.027l-0.353,0.025l-0.354,0.022l-0.354,0.021l-0.355,0.018l-0.356,0.016l-0.356,0.014l-0.357,0.011l-0.358,0.009l-0.358,0.007l-0.359,0.005l-0.36,0.003l-0.36,0l-0.361,-0.003l-0.362,-0.004l-0.362,-0.007l-0.362,-0.01l-0.363,-0.012l-0.364,-0.014l-0.364,-0.017l-0.365,-0.019l-0.365,-0.022l-0.366,-0.025l-0.366,-0.026l-0.367,-0.03l-0.367,-0.032l-0.368,-0.035l-0.368,-0.037l-0.368,-0.04l-0.369,-0.043l-0.369,-0.045l-0.369,-0.048l-0.37,-0.051l-0.369,-0.053l-0.371,-0.056l-0.37,-0.06l-0.371,-0.061l-0.371,-0.065l-0.371,-0.068l-0.371,-0.07l-0.372,-0.073l-0.371,-0.077l-0.372,-0.079l-0.372,-0.082l-0.371,-0.085l-0.372,-0.088l-0.372,-0.091l-0.372,-0.094l-0.372,-0.097l-0.371,-0.1l-0.372,-0.103l-0.372,-0.107l-0.371,-0.109l-0.371,-0.113l-0.371,-0.115l-0.371,-0.119l-0.371,-0.122l-0.37,-0.125l-0.37,-0.129l-0.37,-0.131l-0.369,-0.135l-0.369,-0.138l-0.369,-0.141l-0.368,-0.145l-0.367,-0.148l-0.368,-0.151l-0.366,-0.155l-0.366,-0.157l-0.366,-0.162l-0.364,-0.164l-0.364,-0.168l-0.364,-0.171l-0.363,-0.175l-0.361,-0.178l-0.362,-0.181l-0.36,-0.185l-0.359,-0.188l-0.359,-0.192l-0.358,-0.195l-0.356,-0.198l-0.356,-0.202l-0.355,-0.205l-0.354,-0.209l-0.352,-0.212l-0.352,-0.216l-0.35,-0.219l-0.349,-0.222l-0.348,-0.226l-0.347,-0.229l-0.345,-0.233l-0.345,-0.236l-0.342,-0.24l-0.342,-0.243l-0.34,-0.247l-0.339,-0.25l-0.337,-0.253l-0.335,-0.257l-0.335,-0.261l-0.332,-0.263l-0.331,-0.267l-0.33,-0.271l-0.328,-0.274l-0.326,-0.277l-0.324,-0.281l-0.323,-0.285l-0.321,-0.287l-0.32,-0.291l-0.317,-0.294l-0.316,-0.298l-0.314,-0.301l-0.312,-0.305l-0.31,-0.307l-0.308,-0.311l-0.306,-0.315l-0.305,-0.318l-0.302,-0.321l-0.3,-0.324l-0.299,-0.328l-0.296,-0.331l-0.294,-0.334l-0.292,-0.337l-0.291,-0.341l-0.288,-0.344l-0.285,-0.347l-0.284,-0.35l-0.282,-0.354l-0.286,-0.365l-0.193,-0.249l-0.195,-0.258l-0.19,-0.257l-0.187,-0.258l-0.183,-0.257l-0.18,-0.258l-0.176,-0.258l-0.174,-0.259l-0.172,-0.26l-0.17,-0.262l-0.167,-0.262l-0.166,-0.263l-0.164,-0.265l-0.162,-0.267l-0.161,-0.268l-0.16,-0.269l-0.159,-0.272l-0.157,-0.273l-0.156,-0.274l-0.156,-0.277l-0.154,-0.278l-0.154,-0.281l-0.153,-0.282l-0.152,-0.284l-0.151,-0.286l-0.151,-0.288l-0.15,-0.29l-0.149,-0.291l-0.148,-0.294l-0.148,-0.296l-0.148,-0.297l-0.146,-0.3l-0.146,-0.301l-0.146,-0.303l-0.144,-0.305l-0.144,-0.307l-0.144,-0.308l-0.143,-0.311l-0.142,-0.312l-0.141,-0.313l-0.141,-0.316l-0.14,-0.317l-0.14,-0.319l-0.139,-0.32l-0.138,-0.322l-0.137,-0.324l-0.137,-0.325l-0.135,-0.326l-0.135,-0.328l-0.135,-0.33l-0.133,-0.33l-0.133,-0.332l-0.131,-0.334l-0.131,-0.334l-0.13,-0.336l-0.129,-0.337l-0.128,-0.338l-0.127,-0.34l-0.126,-0.34l-0.125,-0.341l-0.124,-0.343l-0.123,-0.343l-0.122,-0.345l-0.12,-0.345l-0.12,-0.346l-0.118,-0.347l-0.117,-0.348l-0.116,-0.349l-0.115,-0.349l-0.113,-0.35l-0.112,-0.351l-0.111,-0.351l-0.11,-0.352l-0.108,-0.353l-0.106,-0.353l-0.105,-0.354l-0.104,-0.354l-0.102,-0.355l-0.101,-0.355l-0.099,-0.356l-0.097,-0.356l-0.096,-0.357l-0.094,-0.357l-0.092,-0.357l-0.091,-0.358l-0.088,-0.358l-0.087,-0.359l-0.086,-0.359l-0.083,-0.359l-0.081,-0.36l-0.08,-0.36l-0.077,-0.361l-0.075,-0.361l-0.073,-0.361l-0.071,-0.362l-0.069,-0.362l-0.067,-0.363l-0.064,-0.363l-0.062,-0.364l-0.059,-0.365l-0.057,-0.365l-0.055,-0.366l-0.052,-0.367l-0.049,-0.367l-0.046,-0.369l-0.044,-0.369l-0.04,-0.371l-0.038,-0.372l-0.034,-0.373l-0.031,-0.374l-0.028,-0.376l-0.024,-0.378l-0.02,-0.379l-0.017,-0.382l-0.013,-0.383l-0.008,-0.386l-0.004,-0.388l0,-0.391l0.005,-0.373l0.005,-0.218l0.006,-0.199l0.007,-0.2l0.009,-0.2l0.01,-0.202l0.011,-0.202l0.013,-0.204l0.014,-0.204l0.016,-0.205l0.018,-0.206l0.02,-0.208l0.021,-0.208l0.023,-0.21l0.025,-0.211l0.027,-0.212l0.029,-0.213l0.031,-0.215l0.03,-0.2l0.056,-0.333l0.055,-0.318l0.056,-0.318l0.058,-0.318l0.059,-0.319l0.061,-0.319l0.062,-0.319l0.063,-0.32l0.065,-0.32l0.066,-0.32l0.068,-0.321l0.069,-0.321l0.07,-0.321l0.072,-0.322l0.072,-0.322l0.075,-0.322l0.075,-0.323l0.077,-0.324l0.078,-0.323l0.079,-0.324l0.081,-0.325l0.082,-0.325l0.083,-0.325l0.084,-0.325l0.086,-0.327l0.087,-0.326l0.088,-0.327l0.089,-0.327l0.091,-0.328l0.091,-0.328l0.093,-0.329l0.094,-0.329l0.096,-0.329l0.096,-0.33l0.097,-0.331l0.099,-0.331l0.1,-0.331l0.101,-0.332l0.102,-0.332l0.103,-0.332l0.105,-0.333l0.105,-0.334l0.107,-0.334l0.108,-0.334l0.108,-0.335l0.11,-0.335l0.111,-0.336l0.112,-0.336l0.113,-0.337l0.115,-0.337l0.115,-0.338l0.116,-0.338l0.117,-0.338l0.121,-0.346l0.238,-0.672l0.243,-0.681l0.248,-0.683l0.238,-0.645l0.015,-0.04l0.258,-0.686l0.261,-0.687l0.266,-0.689l0.27,-0.691l0.273,-0.693l0.277,-0.694l0.281,-0.697l0.285,-0.697l0.288,-0.7l0.291,-0.701l0.296,-0.703l0.298,-0.704l0.302,-0.706l0.306,-0.707l0.309,-0.71l0.312,-0.71l0.316,-0.712l0.319,-0.714l0.322,-0.715l0.325,-0.716l0.328,-0.718l0.332,-0.719l0.334,-0.721l0.338,-0.722l0.34,-0.723l0.344,-0.724l0.346,-0.726l0.349,-0.727l0.352,-0.728l0.355,-0.729l0.357,-0.731l0.36,-0.731l0.363,-0.732l0.365,-0.734l0.368,-0.734l0.371,-0.736l0.373,-0.736l0.375,-0.737l0.378,-0.739l0.38,-0.738l0.382,-0.74l0.385,-0.741l0.387,-0.741l0.389,-0.742l0.392,-0.742l0.393,-0.743l0.396,-0.744l0.398,-0.744l0.399,-0.745l0.402,-0.746l0.404,-0.745l0.405,-0.746l0.408,-0.747l0.409,-0.747l0.411,-0.747l0.412,-0.747l0.414,-0.748l0.416,-0.747l0.418,-0.748l0.419,-0.748l0.421,-0.748l0.422,-0.748l0.424,-0.748l0.425,-0.748l0.426,-0.748l0.428,-0.748l0.429,-0.748l0.43,-0.747l0.431,-0.747l0.433,-0.747l0.433,-0.746l0.435,-0.747l0.436,-0.745l0.437,-0.746l0.438,-0.745l0.438,-0.744l0.44,-0.744l0.44,-0.743l0.441,-0.742l0.442,-0.742l0.443,-0.741l0.443,-0.74l0.444,-0.74l0.445,-0.739l0.445,-0.737l0.446,-0.737l0.446,-0.736l0.446,-0.735l0.447,-0.734l0.448,-0.733l0.447,-0.731l0.448,-0.731l0.448,-0.729l0.448,-0.728l0.449,-0.727l0.448,-0.725l0.45,-0.726l0.896,-1.442l0.897,-1.437l0.896,-1.432l0.896,-1.424l0.894,-1.418l0.893,-1.41l0.89,-1.403l0.889,-1.394l0.886,-1.386l0.883,-1.378l0.88,-1.368l0.876,-1.36l0.873,-1.349l0.868,-1.339l0.864,-1.329l0.858,-1.319l0.854,-1.307l0.848,-1.296l0.842,-1.284l0.836,-1.272l0.83,-1.259l0.822,-1.247l0.816,-1.233l0.664,-1.004l-0.223,-1.046l-0.267,-1.244l-0.268,-1.241l-0.268,-1.238l-0.268,-1.234l-0.268,-1.231l-0.269,-1.227l-0.269,-1.224l-0.269,-1.22l-0.269,-1.216l-0.27,-1.212l-0.269,-1.208l-0.269,-1.204l-0.268,-1.198l-0.538,-2.388l-0.536,-2.367l-0.534,-2.348l-0.532,-2.328l-0.529,-2.306l-0.526,-2.285l-0.523,-2.262l-0.518,-2.238l-0.515,-2.214l-0.509,-2.188l-0.189,-0.812l-0.206,0.248l-0.311,0.374l-0.311,0.373l-0.312,0.373l-0.312,0.371l-0.313,0.371l-0.313,0.371l-0.314,0.369l-0.314,0.369l-0.314,0.368l-0.315,0.367l-0.316,0.367l-0.316,0.365l-0.316,0.365l-0.317,0.364l-0.317,0.364l-0.318,0.362l-0.318,0.362l-0.318,0.361l-0.319,0.36l-0.32,0.359l-0.32,0.359l-0.32,0.357l-0.321,0.357l-0.321,0.356l-0.322,0.355l-0.323,0.354l-0.322,0.353l-0.323,0.353l-0.324,0.351l-0.324,0.351l-0.325,0.35l-0.325,0.349l-0.325,0.348l-0.326,0.347l-0.327,0.346l-0.327,0.345l-0.327,0.345l-0.328,0.343l-0.328,0.342l-0.329,0.342l-0.33,0.341l-0.329,0.339l-0.331,0.339l-0.33,0.337l-0.332,0.337l-0.331,0.336l-0.332,0.335l-0.333,0.333l-0.333,0.333l-0.334,0.332l-0.334,0.331l-0.335,0.33l-0.335,0.328l-0.335,0.328l-0.336,0.327l-0.337,0.325l-0.337,0.325l-0.338,0.323l-0.338,0.323l-0.338,0.321l-0.339,0.321l-0.34,0.319l-0.34,0.318l-0.341,0.317l-0.341,0.316l-0.341,0.315l-0.343,0.314l-0.342,0.313l-0.343,0.311l-0.344,0.311l-0.344,0.309l-0.345,0.308l-0.345,0.307l-0.346,0.306l-0.346,0.305l-0.347,0.303l-0.347,0.303l-0.348,0.301l-0.349,0.3l-0.349,0.299l-0.349,0.297l-0.35,0.297l-0.351,0.295l-0.351,0.294l-0.351,0.293l-0.352,0.291l-0.353,0.29l-0.354,0.289l-0.353,0.288l-0.355,0.287l-0.355,0.285l-0.355,0.284l-0.356,0.283l-0.357,0.281l-0.357,0.28l-0.358,0.279l-0.358,0.278l-0.359,0.276l-0.36,0.275l-0.36,0.273l-0.361,0.273l-0.136,0.102l-0.226,0.168l-0.363,0.267l-0.363,0.267l-0.364,0.265l-0.365,0.264l-0.366,0.262l-0.366,0.261l-0.366,0.26l-0.367,0.258l-0.368,0.257l-0.368,0.255l-0.369,0.254l-0.37,0.252l-0.37,0.251l-0.37,0.25l-0.372,0.248l-0.372,0.247l-0.372,0.245l-0.373,0.243l-0.374,0.242l-0.375,0.241l-0.375,0.239l-0.375,0.238l-0.377,0.236l-0.377,0.234l-0.377,0.233l-0.378,0.231l-0.379,0.23l-0.379,0.228l-0.381,0.227l-0.38,0.225l-0.382,0.223l-0.382,0.222l-0.382,0.22l-0.384,0.219l-0.384,0.216l-0.384,0.216l-0.386,0.213l-0.386,0.212l-0.386,0.21l-0.387,0.209l-0.388,0.206l-0.389,0.205l-0.389,0.204l-0.39,0.201l-0.391,0.2l-0.391,0.198l-0.392,0.196l-0.393,0.195l-0.393,0.193l-0.394,0.19l-0.395,0.19l-0.396,0.187l-0.396,0.185l-0.397,0.184l-0.397,0.181l-0.398,0.18l-0.399,0.178l-0.4,0.176l-0.4,0.174l-0.401,0.173l-0.402,0.17l-0.402,0.168l-0.403,0.167l-0.404,0.164l-0.404,0.163l-0.405,0.16l-0.406,0.159l-0.407,0.156l-0.407,0.154l-0.408,0.153l-0.409,0.15l-0.409,0.148l-0.41,0.146l-0.411,0.144l-0.411,0.142l-0.412,0.14l-0.413,0.138l-0.414,0.135l-0.414,0.134l-0.415,0.131l-0.415,0.129l-0.417,0.127l-0.417,0.124l-0.417,0.123l-0.564,0.162l-0.562,0.158l-0.56,0.154l-0.558,0.15l-0.557,0.147l-0.556,0.142l-0.554,0.139l-0.552,0.135l-0.551,0.131l-0.549,0.128l-0.547,0.123l-0.547,0.12l-0.544,0.116l-0.543,0.112l-0.542,0.109l-0.54,0.104l-0.539,0.101l-0.537,0.097l-0.536,0.093l-0.534,0.089l-0.533,0.085l-0.532,0.081l-0.53,0.078l-0.529,0.073l-0.527,0.07l-0.526,0.066l-0.525,0.062l-0.523,0.058l-0.522,0.054l-0.506,0.048l-0.274,0.025l-0.259,0.023l-0.26,0.021l-0.258,0.021l-0.259,0.02l-0.258,0.018l-0.258,0.018l-0.257,0.017l-0.257,0.015l-0.257,0.015l-0.257,0.014l-0.256,0.012l-0.255,0.012l-0.256,0.011l-0.255,0.009l-0.255,0.009l-0.254,0.007l-0.254,0.007l-0.254,0.006l-0.254,0.004l-0.253,0.004l-0.253,0.002l-0.252,0.002l-0.252,0l-0.252,0l-0.251,-0.002l-0.251,-0.002l-0.251,-0.004l-0.251,-0.004l-0.25,-0.006l-0.25,-0.007l-0.249,-0.007l-0.249,-0.009l-0.249,-0.01l-0.248,-0.011l-0.248,-0.011l-0.248,-0.013l-0.247,-0.014l-0.247,-0.015l-0.247,-0.016l-0.246,-0.017l-0.246,-0.018l-0.246,-0.019l-0.245,-0.021l-0.245,-0.021l-0.244,-0.022l-0.245,-0.024l-0.243,-0.024l-0.244,-0.025l-0.243,-0.027l-0.243,-0.028l-0.242,-0.028l-0.242,-0.03l-0.241,-0.031l-0.241,-0.032l-0.241,-0.032l-0.241,-0.034l-0.24,-0.036l-0.239,-0.036l-0.239,-0.037l-0.239,-0.038l-0.239,-0.039l-0.238,-0.041l-0.237,-0.041l-0.238,-0.043l-0.236,-0.044l-0.237,-0.044l-0.236,-0.046l-0.235,-0.047l-0.235,-0.048l-0.235,-0.049l-0.234,-0.05l-0.234,-0.052l-0.233,-0.052l-0.233,-0.053l-0.232,-0.055l-0.232,-0.055l-0.232,-0.057l-0.231,-0.058l-0.23,-0.058l-0.231,-0.06l-0.229,-0.061l-0.229,-0.062l-0.229,-0.064l-0.228,-0.064l-0.228,-0.065l-0.227,-0.067l-0.227,-0.067l-0.226,-0.069l-0.225,-0.069l-0.226,-0.071l-0.224,-0.072l-0.224,-0.073l-0.224,-0.074l-0.223,-0.075l-0.222,-0.076l-0.222,-0.077l-0.221,-0.078l-0.221,-0.08l-0.22,-0.08l-0.22,-0.082l-0.219,-0.082l-0.219,-0.084l-0.218,-0.085l-0.217,-0.085l-0.217,-0.087l-0.216,-0.088l-0.215,-0.089l-0.215,-0.09l-0.214,-0.091l-0.214,-0.092l-0.213,-0.093l-0.212,-0.094l-0.212,-0.096l-0.211,-0.096l-0.211,-0.097l-0.21,-0.098l-0.209,-0.1l-0.208,-0.1l-0.208,-0.101l-0.207,-0.103l-0.207,-0.103l-0.205,-0.105l-0.205,-0.105l-0.205,-0.107l-0.203,-0.107l-0.203,-0.108l-0.203,-0.11l-0.201,-0.11l-0.201,-0.112l-0.2,-0.112l-0.199,-0.113l-0.199,-0.115l-0.198,-0.115l-0.197,-0.116l-0.197,-0.117l-0.195,-0.118l-0.195,-0.119l-0.194,-0.12l-0.193,-0.121l-0.193,-0.122l-0.192,-0.123l-0.191,-0.124l-0.19,-0.124l-0.189,-0.126l-0.189,-0.126l-0.188,-0.128l-0.187,-0.128l-0.186,-0.129l-0.186,-0.13l-0.184,-0.131l-0.184,-0.131l-0.183,-0.133l-0.182,-0.133l-0.181,-0.135l-0.181,-0.135l-0.179,-0.136l-0.179,-0.137l-0.178,-0.137l-0.177,-0.139l-0.177,-0.139l-0.175,-0.14l-0.175,-0.141l-0.189,-0.154l-0.329,-0.273l-0.342,-0.289l-0.338,-0.291l-0.334,-0.295l-0.331,-0.298l-0.328,-0.301l-0.324,-0.303l-0.32,-0.306l-0.317,-0.309l-0.313,-0.312l-0.31,-0.314l-0.306,-0.317l-0.303,-0.319l-0.299,-0.322l-0.296,-0.324l-0.292,-0.327l-0.288,-0.328l-0.285,-0.332l-0.282,-0.333l-0.277,-0.335l-0.275,-0.338l-0.271,-0.34l-0.267,-0.342l-0.264,-0.343l-0.26,-0.346l-0.257,-0.347l-0.253,-0.35l-0.25,-0.351l-0.246,-0.353l-0.243,-0.355l-0.24,-0.356l-0.236,-0.358l-0.233,-0.36l-0.23,-0.361l-0.226,-0.363l-0.223,-0.364l-0.219,-0.365l-0.217,-0.367l-0.213,-0.369l-0.21,-0.37l-0.206,-0.371l-0.204,-0.372l-0.2,-0.374l-0.197,-0.375l-0.194,-0.376l-0.191,-0.377l-0.188,-0.379l-0.185,-0.379l-0.182,-0.381l-0.178,-0.382l-0.176,-0.383l-0.173,-0.384l-0.17,-0.384l-0.167,-0.386l-0.164,-0.387l-0.161,-0.388l-0.159,-0.389l-0.156,-0.389l-0.152,-0.391l-0.151,-0.391l-0.147,-0.392l-0.145,-0.393l-0.142,-0.394l-0.139,-0.394l-0.136,-0.396l-0.134,-0.396l-0.132,-0.397l-0.129,-0.398l-0.126,-0.398l-0.124,-0.399l-0.121,-0.4l-0.118,-0.4l-0.117,-0.401l-0.113,-0.402l-0.112,-0.403l-0.109,-0.403l-0.106,-0.403l-0.104,-0.405l-0.102,-0.405l-0.065,-0.266l-15.687,-6.26l-0.009,-0.004l-2.445,-1.52l-1.744,-2.177l-0.871,-2.54l0.159,-2.603l0.005,-0.019l1.245,-2.292l2.085,-1.692l2.632,-0.923l2.879,0.007l0.01,0.002l9.402,1.698l-0.003,-0.11l-0.011,-0.423l-0.008,-0.424l-0.007,-0.424l-0.005,-0.424l-0.004,-0.424l-0.002,-0.424l0,-0.425l0.001,-0.425l0.003,-0.425l0.005,-0.425l0.006,-0.425l0.008,-0.426l0.009,-0.426l0.011,-0.425l0.013,-0.426l0.014,-0.426l0.016,-0.426l0.017,-0.427l0.019,-0.426l0.02,-0.426l0.022,-0.427l0.023,-0.427l0.025,-0.426l0.026,-0.427l0.028,-0.427l0.03,-0.427l0.03,-0.427l0.033,-0.426l0.033,-0.427l0.036,-0.427l0.036,-0.427l0.039,-0.427l0.039,-0.427l0.041,-0.427l0.043,-0.427l0.043,-0.427l0.046,-0.427l0.046,-0.426l0.048,-0.427l0.05,-0.427l0.051,-0.426l0.052,-0.427l0.054,-0.426l0.055,-0.427l0.056,-0.426l0.058,-0.426l0.059,-0.426l0.06,-0.426l0.062,-0.425l0.063,-0.426l0.064,-0.425l0.066,-0.425l0.067,-0.425l0.068,-0.425l0.07,-0.425l0.071,-0.424l0.072,-0.424l0.073,-0.424l0.075,-0.424l0.076,-0.423l0.077,-0.424l0.079,-0.423l0.08,-0.422l0.081,-0.423l0.082,-0.422l0.084,-0.422l0.085,-0.422l0.086,-0.421l0.087,-0.421l0.088,-0.42l0.09,-0.421l0.091,-0.42l0.092,-0.419l0.094,-0.419l0.094,-0.419l0.096,-0.419l0.097,-0.418l0.098,-0.417l0.099,-0.418l0.101,-0.416l0.101,-0.417l0.103,-0.416l0.104,-0.415l0.105,-0.415l0.107,-0.415l0.107,-0.414l0.109,-0.414l0.109,-0.413l0.111,-0.413l0.112,-0.412l0.113,-0.411l0.115,-0.411l0.115,-0.411l0.117,-0.41l0.117,-0.409l0.119,-0.409l0.12,-0.409l0.121,-0.407l0.122,-0.408l0.123,-0.406l0.124,-0.406l0.126,-0.405l0.126,-0.405l0.128,-0.404l0.128,-0.403l0.13,-0.403l0.131,-0.402l0.132,-0.401l0.132,-0.401l0.134,-0.4l0.135,-0.399l0.136,-0.399l0.138,-0.398l0.138,-0.397l0.139,-0.396l0.14,-0.396l0.142,-0.395l0.142,-0.394l0.143,-0.393l0.145,-0.393l0.145,-0.392l0.147,-0.391l0.147,-0.39l0.149,-0.389l0.149,-0.388l0.151,-0.388l0.151,-0.387l0.153,-0.386l0.154,-0.385l0.154,-0.384l0.156,-0.383l0.157,-0.383l0.157,-0.381l0.159,-0.381l0.16,-0.38l0.16,-0.378l0.162,-0.378l0.163,-0.377l0.164,-0.376l0.164,-0.375l0.166,-0.374l0.167,-0.373l0.167,-0.372l0.169,-0.371l0.084,-0.184l0.086,-0.186l0.172,-0.368l0.172,-0.368l0.174,-0.366l0.175,-0.366l0.175,-0.364l0.177,-0.363l0.177,-0.363l0.179,-0.361l0.179,-0.36l0.181,-0.359l0.181,-0.358l0.183,-0.357l0.183,-0.355l0.185,-0.355l0.185,-0.353l0.187,-0.352l0.187,-0.351l0.189,-0.35l0.189,-0.349l0.191,-0.348l0.191,-0.346l0.193,-0.345l0.193,-0.344l0.195,-0.343l0.195,-0.341l0.197,-0.341l0.198,-0.339l0.198,-0.338l0.2,-0.336l0.201,-0.336l0.201,-0.334l0.203,-0.332l0.204,-0.332l0.205,-0.33l0.206,-0.329l0.207,-0.328l0.208,-0.326l0.209,-0.325l0.21,-0.323l0.211,-0.323l0.213,-0.321l0.213,-0.319l0.215,-0.318l0.215,-0.317l0.217,-0.316l0.218,-0.314l0.219,-0.312l0.221,-0.312l0.221,-0.31l0.223,-0.308l0.223,-0.307l0.225,-0.305l0.226,-0.305l0.228,-0.302l0.228,-0.301l0.23,-0.3l0.231,-0.298l0.232,-0.297l0.234,-0.295l0.235,-0.294l0.236,-0.292l0.237,-0.291l0.239,-0.289l0.24,-0.287l0.242,-0.286l0.243,-0.285l0.244,-0.283l0.245,-0.281l0.247,-0.279l0.249,-0.278l0.25,-0.277l0.251,-0.274l0.253,-0.273l0.255,-0.272l0.256,-0.269l0.257,-0.268l0.259,-0.267l0.261,-0.264l0.262,-0.263l0.264,-0.261l0.266,-0.259l0.267,-0.257l0.269,-0.256l0.271,-0.254l0.273,-0.252l0.274,-0.25l0.277,-0.248l0.278,-0.246l0.28,-0.244l0.282,-0.242l0.283,-0.241l0.286,-0.238l0.288,-0.236l0.29,-0.234l0.292,-0.232l0.294,-0.23l0.296,-0.228l0.298,-0.225l0.3,-0.223l0.303,-0.221l0.305,-0.219l0.307,-0.216l0.309,-0.214l0.312,-0.211l0.314,-0.209l0.317,-0.207l0.319,-0.203l0.321,-0.202l0.324,-0.198l0.327,-0.196l0.329,-0.193l0.331,-0.19l0.335,-0.187l0.336,-0.184l0.34,-0.181l0.342,-0.179l0.345,-0.174l0.347,-0.172l0.35,-0.168l0.353,-0.165l0.356,-0.162l0.358,-0.158l0.362,-0.154l0.364,-0.15l0.366,-0.147l0.37,-0.143l0.372,-0.139l0.375,-0.135l0.378,-0.13l0.38,-0.126l0.364,-0.116l0.454,-0.14l0.434,-0.129l0.434,-0.126l0.433,-0.123l0.432,-0.118l0.432,-0.116l0.431,-0.111l0.43,-0.108l0.431,-0.104l0.429,-0.1l0.429,-0.097l0.429,-0.092l0.429,-0.089l0.427,-0.086l0.428,-0.081l0.427,-0.077l0.427,-0.074l0.427,-0.069l0.427,-0.066l0.426,-0.061l0.426,-0.058l0.425,-0.053l0.426,-0.05l0.425,-0.045l0.426,-0.041l0.424,-0.036l0.425,-0.033l0.425,-0.028l0.424,-0.024l0.425,-0.019l0.424,-0.015l0.424,-0.01l0.424,-0.006l0.423,-0.001l0.424,0.004l0.423,0.008l0.423,0.013l0.422,0.018l0.423,0.023l0.422,0.028l0.422,0.033l0.421,0.037l0.421,0.043l0.42,0.048l0.42,0.054l0.419,0.058l0.395,0.06l0.233,0.038l0.209,0.035l0.208,0.037l0.209,0.038l0.208,0.039l0.208,0.041l0.208,0.042l0.207,0.043l0.208,0.045l0.207,0.046l0.206,0.048l0.207,0.049l0.206,0.05l0.206,0.052l0.206,0.053l0.205,0.054l0.205,0.056l0.204,0.058l0.205,0.059l0.203,0.06l0.204,0.061l0.203,0.063l0.202,0.065l0.203,0.066l0.201,0.067l0.202,0.069l0.201,0.07l0.2,0.071l0.2,0.073l0.199,0.075l0.199,0.075l0.198,0.078l0.198,0.078l0.197,0.08l0.197,0.082l0.196,0.083l0.195,0.084l0.195,0.086l0.194,0.087l0.193,0.088l0.193,0.09l0.192,0.092l0.191,0.092l0.191,0.094l0.19,0.096l0.189,0.096l0.188,0.099l0.188,0.099l0.187,0.101l0.186,0.102l0.185,0.104l0.184,0.104l0.184,0.106l0.182,0.108l0.182,0.109l0.181,0.11l0.18,0.111l0.179,0.112l0.178,0.114l0.177,0.115l0.176,0.117l0.176,0.117l0.174,0.119l0.173,0.12l0.172,0.121l0.194,0.138l0.317,0.232l0.335,0.253l0.331,0.257l0.326,0.261l0.322,0.266l0.318,0.269l0.313,0.274l0.308,0.277l0.303,0.282l0.299,0.285l0.294,0.288l0.289,0.292l0.284,0.295l0.28,0.299l0.274,0.301l0.27,0.304l0.264,0.307l0.26,0.31l0.255,0.313l0.25,0.314l0.245,0.318l0.24,0.319l0.235,0.322l0.23,0.323l0.225,0.326l0.221,0.327l0.215,0.329l0.211,0.331l0.207,0.333l0.201,0.334l0.197,0.335l0.192,0.337l0.188,0.337l0.183,0.34l0.179,0.34l0.174,0.341l0.17,0.342l0.166,0.344l0.161,0.344l0.157,0.345l0.153,0.345l0.149,0.347l0.145,0.347l0.141,0.348l0.137,0.348l0.133,0.349l0.129,0.349l0.126,0.35l0.122,0.351l0.118,0.351l0.114,0.351l0.111,0.352l0.107,0.352l0.104,0.352l0.101,0.353l0.097,0.353l0.094,0.353l0.091,0.354l0.087,0.354l0.084,0.354l0.081,0.355l0.078,0.354l0.075,0.355l0.072,0.355l0.069,0.356l0.066,0.355l0.064,0.356l0.06,0.356l0.058,0.356l0.054,0.356l0.053,0.357l0.049,0.357l0.047,0.357l0.044,0.357l0.042,0.357l0.039,0.358l0.036,0.357l0.034,0.358l0.032,0.358l0.029,0.358l0.027,0.359l0.024,0.358l0.022,0.359l0.02,0.359l0.017,0.359l0.015,0.36l0.013,0.359l0.01,0.36l0.009,0.36l0.006,0.36l0.004,0.36l0.002,0.361l0,0.36l-0.003,0.361l-0.004,0.361l-0.007,0.362l-0.008,0.361l-0.011,0.362l-0.012,0.362l-0.015,0.362l-0.016,0.362l-0.019,0.363l-0.02,0.362l-0.023,0.363l-0.024,0.363l-0.026,0.364l-0.029,0.363l-0.03,0.364l-0.032,0.364l-0.033,0.364l-0.036,0.364l-0.037,0.365l-0.04,0.364l-0.041,0.365l-0.043,0.365l-0.044,0.366l-0.047,0.365l-0.048,0.366l-0.05,0.366l-0.051,0.366l-0.054,0.366l-0.055,0.366l-0.057,0.367l-0.058,0.366l-0.061,0.367l-0.062,0.367l-0.043,0.25l-0.021,0.118l-0.067,0.367l-0.068,0.367l-0.071,0.367l-0.072,0.368l-0.073,0.367l-0.076,0.368l-0.077,0.368l-0.078,0.368l-0.08,0.368l-0.082,0.368l-0.083,0.369l-0.085,0.368l-0.087,0.369l-0.088,0.368l-0.089,0.369l-0.092,0.369l-0.092,0.369l-0.095,0.368l-0.096,0.369l-0.097,0.369l-0.099,0.37l-0.101,0.369l-0.102,0.369l-0.103,0.369l-0.105,0.369l-0.107,0.369l-0.108,0.37l-0.11,0.369l-0.111,0.369l-0.112,0.37l-0.115,0.369l-0.115,0.369l-0.117,0.369l-0.119,0.369l-0.12,0.369l-0.121,0.37l-0.123,0.369l-0.125,0.369l-0.126,0.368l-0.127,0.369l-0.129,0.369l-0.13,0.369l-0.131,0.368l-0.134,0.369l-0.134,0.368l-0.136,0.368l-0.137,0.368l-0.139,0.368l-0.14,0.368l-0.142,0.367l-0.143,0.368l-0.144,0.367l-0.146,0.367l-0.147,0.367l-0.149,0.367l-0.15,0.366l-0.151,0.366l-0.153,0.367l-0.154,0.365l-0.156,0.366l-0.157,0.365l-0.158,0.365l-0.16,0.365l-0.161,0.365l-0.162,0.364l-0.164,0.364l-0.165,0.363l-0.167,0.364l-0.168,0.363l-0.169,0.363l-0.171,0.362l-0.172,0.362l-0.173,0.361l-0.174,0.362l-0.176,0.361l-0.178,0.36l-0.178,0.36l-0.18,0.36l-0.182,0.359l-0.182,0.359l-0.184,0.358l-0.186,0.358l-0.186,0.358l-0.188,0.357l-0.189,0.356l-0.191,0.357l-0.192,0.355l-0.193,0.355l-0.195,0.355l-0.195,0.354l-0.198,0.353l-0.198,0.353l-0.2,0.353l-0.201,0.352l-0.202,0.351l-0.204,0.351l-0.205,0.35l-0.206,0.349l-0.208,0.349l-0.209,0.348l-0.21,0.348l-0.212,0.347l-0.213,0.346l-0.214,0.346l-0.215,0.345l-0.217,0.344l-0.218,0.344l-0.219,0.343l-0.221,0.342l-0.221,0.341l-0.224,0.341l-0.224,0.34l-0.226,0.339l-0.227,0.338l-0.228,0.338l-0.23,0.337l-0.231,0.336l-0.232,0.335l-0.233,0.334l-0.235,0.334l-0.236,0.332l-0.238,0.332l-0.238,0.331l-0.24,0.33l-0.241,0.329l-0.243,0.328l-0.244,0.328l-0.245,0.326l-0.246,0.326l-0.248,0.324l-0.249,0.324l-0.25,0.322l-0.251,0.322l-0.253,0.32l-0.254,0.32l-0.256,0.318l-0.257,0.318l-0.258,0.316l-0.259,0.316l-0.26,0.314l-0.262,0.313l-0.264,0.312l-0.264,0.311l-0.266,0.31l-0.267,0.309l-0.269,0.308l-0.269,0.306l-0.271,0.305l-0.273,0.305l-0.274,0.302l-0.275,0.302l-0.276,0.301l-0.278,0.299l-0.279,0.298l-0.28,0.297l-0.282,0.295l-0.283,0.294l-0.284,0.293l-0.286,0.292l-0.287,0.29l-0.288,0.289l-0.29,0.287l-0.291,0.286l-0.292,0.285l-0.021,0.02l-0.293,0.243l-0.316,0.26l-0.318,0.258l-0.318,0.256l-0.32,0.255l-0.321,0.253l-0.322,0.252l-0.323,0.25l-0.324,0.248l-0.326,0.246l-0.326,0.245l-0.328,0.243l-0.328,0.241l-0.33,0.239l-0.331,0.238l-0.332,0.236l-0.333,0.233l-0.334,0.233l-0.336,0.23l-0.336,0.228l-0.338,0.227l-0.338,0.224l-0.34,0.223l-0.341,0.22l-0.342,0.219l-0.343,0.217l-0.344,0.215l-0.345,0.212l-0.347,0.211l-0.347,0.209l-0.349,0.206l-0.349,0.205l-0.351,0.202l-0.352,0.2l-0.353,0.198l-0.354,0.196l-0.355,0.194l-0.356,0.191l-0.357,0.19l-0.359,0.187l-0.359,0.184l-0.361,0.183l-0.361,0.18l-0.363,0.178l-0.363,0.175l-0.365,0.173l-0.366,0.171l-0.367,0.168l-0.368,0.166l-0.369,0.163l-0.37,0.161l-0.371,0.158l-0.372,0.156l-0.373,0.153l-0.374,0.151l-0.375,0.148l-0.376,0.146l-0.377,0.142l-0.379,0.141l-0.379,0.137l-0.38,0.135l-0.381,0.132l-0.382,0.129l-0.383,0.126l-0.384,0.124l-0.384,0.12l-0.386,0.118l-0.387,0.115l-0.387,0.112l-0.306,0.086l0.11,0.133l0.072,0.084l0.122,0.141l0.072,0.082l0.124,0.137l0.072,0.078l0.125,0.134l0.072,0.075l0.127,0.13l0.072,0.073l0.128,0.126l0.072,0.07l0.13,0.123l0.073,0.068l0.131,0.119l0.073,0.066l0.133,0.116l0.074,0.063l0.135,0.113l0.12,0.099l0.068,0.055l-0.061,-0.05l0.083,0.067l0.084,0.067l-0.061,-0.049l0.084,0.066l0.084,0.065l-0.062,-0.048l0.085,0.065l0.085,0.065l-0.063,-0.048l0.086,0.064l0.086,0.064l-0.064,-0.047l0.087,0.063l0.086,0.063l-0.064,-0.046l0.087,0.062l0.087,0.062l-0.064,-0.046l0.087,0.062l0.088,0.061l-0.065,-0.045l0.088,0.061l0.089,0.06l-0.066,-0.045l0.09,0.06l0.089,0.06l-0.066,-0.044l0.09,0.059l0.023,0.015l0.091,0.058l0.024,0.015l0.091,0.057l0.024,0.015l0.092,0.057l0.025,0.015l0.093,0.055l0.024,0.015l0.094,0.055l0.025,0.014l0.095,0.054l0.026,0.015l0.095,0.053l0.026,0.014l0.096,0.052l0.027,0.015l0.097,0.051l0.027,0.014l0.098,0.051l0.028,0.014l0.099,0.05l0.029,0.014l0.099,0.049l0.029,0.014l0.101,0.048l0.03,0.014l0.102,0.047l0.03,0.014l0.103,0.046l0.031,0.014l0.104,0.046l0.032,0.014l0.104,0.044l0.033,0.014l0.106,0.044l0.034,0.013l0.106,0.043l0.035,0.014l0.108,0.042l0.035,0.014l0.109,0.041l0.036,0.013l0.11,0.041l0.038,0.013l0.111,0.04l0.038,0.013l0.112,0.039l0.04,0.013l0.113,0.038l0.114,0.037l-0.073,-0.024l0.114,0.037l0.115,0.036l-0.073,-0.023l0.116,0.036l0.116,0.035l-0.073,-0.022l0.116,0.035l0.118,0.034l-0.073,-0.021l0.118,0.034l0.118,0.033l-0.073,-0.02l0.119,0.033l0.083,0.022l0.084,0.023l0.085,0.022l0.085,0.021l0.086,0.022l0.086,0.021l0.087,0.021l0.088,0.02l0.088,0.021l0.089,0.02l0.09,0.019l0.09,0.02l0.092,0.019l0.091,0.018l0.093,0.019l0.093,0.018l0.094,0.018l0.095,0.017l0.095,0.017l0.096,0.017l0.097,0.016l0.097,0.017l0.099,0.015l0.099,0.016l0.099,0.015l0.101,0.014l0.101,0.015l0.102,0.014l0.103,0.013l0.104,0.014l0.104,0.012l0.105,0.013l0.106,0.012l0.106,0.011l0.108,0.012l0.108,0.01l0.109,0.011l0.11,0.01l0.11,0.009l0.112,0.01l0.112,0.008l0.113,0.009l0.114,0.008l0.114,0.007l0.116,0.007l0.116,0.006l0.117,0.007l0.118,0.005l0.119,0.005l0.119,0.005l0.121,0.004l0.121,0.004l0.122,0.003l0.123,0.003l0.123,0.002l0.125,0.002l0.125,0.001l0.126,0.001l0.128,0l0.128,0l0.128,-0.001l0.13,-0.001l0.13,-0.002l0.132,-0.003l0.132,-0.003l0.133,-0.003l0.134,-0.004l0.135,-0.005l0.135,-0.005l0.137,-0.006l0.137,-0.006l0.138,-0.007l0.14,-0.007l0.14,-0.008l0.14,-0.009l0.142,-0.009l0.143,-0.01l0.143,-0.01l0.145,-0.011l0.145,-0.012l0.146,-0.012l0.147,-0.013l0.148,-0.014l0.135,-0.013l0.314,-0.031l0.303,-0.033l0.307,-0.035l0.311,-0.038l0.314,-0.041l0.318,-0.043l0.321,-0.046l0.325,-0.049l0.328,-0.051l0.332,-0.055l0.336,-0.057l0.338,-0.06l0.343,-0.063l0.346,-0.067l0.349,-0.069l0.354,-0.072l0.356,-0.075l0.36,-0.078l0.364,-0.081l0.367,-0.085l0.371,-0.087l0.374,-0.091l0.378,-0.094l0.381,-0.097l0.385,-0.101l0.388,-0.103l0.391,-0.107l0.396,-0.111l0.398,-0.114l0.403,-0.117l0.259,-0.077l0.26,-0.079l0.261,-0.08l0.261,-0.083l0.261,-0.083l0.262,-0.086l0.262,-0.087l0.262,-0.089l0.263,-0.09l0.263,-0.092l0.264,-0.094l0.264,-0.095l0.264,-0.097l0.265,-0.098l0.265,-0.101l0.266,-0.101l0.265,-0.104l0.267,-0.105l0.266,-0.107l0.267,-0.108l0.267,-0.111l0.268,-0.111l0.268,-0.114l0.269,-0.115l0.268,-0.117l0.27,-0.118l0.269,-0.12l0.27,-0.122l0.27,-0.123l0.271,-0.125l0.27,-0.126l0.272,-0.129l0.271,-0.13l0.272,-0.131l0.272,-0.133l0.273,-0.135l0.273,-0.137l0.273,-0.138l0.273,-0.14l0.274,-0.141l0.274,-0.143l0.275,-0.145l0.274,-0.146l0.275,-0.148l0.276,-0.15l0.275,-0.151l0.276,-0.153l0.276,-0.154l0.277,-0.156l0.276,-0.158l0.277,-0.159l0.278,-0.161l0.277,-0.163l0.278,-0.164l0.278,-0.166l0.278,-0.167l0.279,-0.169l0.279,-0.171l0.279,-0.172l0.279,-0.174l0.279,-0.175l0.28,-0.177l0.28,-0.178l0.28,-0.181l0.28,-0.181l0.281,-0.183l0.281,-0.185l0.281,-0.187l0.281,-0.188l0.281,-0.189l0.282,-0.191l0.281,-0.193l0.282,-0.194l0.282,-0.196l0.282,-0.197l0.283,-0.199l0.282,-0.2l0.283,-0.202l0.283,-0.204l0.283,-0.204l0.283,-0.207l0.283,-0.208l0.284,-0.209l0.283,-0.211l0.177,-0.132l0.107,-0.08l0.285,-0.212l0.286,-0.214l0.285,-0.215l0.285,-0.217l0.286,-0.218l0.286,-0.22l0.285,-0.221l0.286,-0.223l0.286,-0.224l0.286,-0.225l0.286,-0.227l0.287,-0.229l0.286,-0.23l0.286,-0.231l0.287,-0.233l0.287,-0.234l0.286,-0.236l0.287,-0.236l0.287,-0.239l0.287,-0.24l0.286,-0.241l0.287,-0.242l0.287,-0.244l0.287,-0.246l0.287,-0.246l0.288,-0.249l0.287,-0.249l0.287,-0.251l0.287,-0.252l0.287,-0.253l0.288,-0.255l0.287,-0.257l0.287,-0.257l0.287,-0.259l0.288,-0.26l0.287,-0.261l0.287,-0.263l0.288,-0.264l0.287,-0.266l0.287,-0.266l0.287,-0.268l0.288,-0.269l0.287,-0.271l0.287,-0.272l0.287,-0.273l0.287,-0.274l0.287,-0.275l0.287,-0.277l0.287,-0.278l0.287,-0.279l0.287,-0.281l0.287,-0.281l0.287,-0.283l0.286,-0.284l0.287,-0.285l0.287,-0.287l0.286,-0.287l0.287,-0.289l0.286,-0.29l0.286,-0.291l0.287,-0.293l0.286,-0.293l0.286,-0.295l0.286,-0.295l0.286,-0.297l0.286,-0.298l0.285,-0.299l0.286,-0.301l0.285,-0.301l0.286,-0.303l0.285,-0.303l0.285,-0.305l0.285,-0.306l0.285,-0.306l0.285,-0.308l0.285,-0.309l0.285,-0.31l0.284,-0.311l0.284,-0.312l0.285,-0.314l0.284,-0.314l0.284,-0.315l0.283,-0.316l0.284,-0.317l0.284,-0.319l0.283,-0.319l0.283,-0.32l0.283,-0.322l0.283,-0.322l0.283,-0.323l0.283,-0.324l0.282,-0.325l0.283,-0.327l0.282,-0.327l0.282,-0.328l0.281,-0.329l0.282,-0.329l0.282,-0.331l0.281,-0.332l0.281,-0.333l0.281,-0.333l0.281,-0.335l0.276,-0.33l0.565,-0.678l0.56,-0.677l0.559,-0.681l0.558,-0.683l0.557,-0.687l0.557,-0.691l0.556,-0.693l0.554,-0.697l0.554,-0.7l0.553,-0.703l0.553,-0.706l0.551,-0.709l0.55,-0.712l0.55,-0.715l0.548,-0.718l0.547,-0.72l0.547,-0.724l0.545,-0.726l0.545,-0.728l0.543,-0.731l0.542,-0.734l0.542,-0.736l0.54,-0.738l0.539,-0.741l0.538,-0.744l0.453,-0.629l-0.055,-0.262l-0.146,-0.714l-0.143,-0.703l-0.139,-0.694l-0.136,-0.684l-0.131,-0.673l-0.128,-0.664l-0.124,-0.654l-0.12,-0.643l-0.115,-0.635l-0.112,-0.624l-0.108,-0.615l-0.103,-0.606l-0.1,-0.597l-0.095,-0.587l-0.091,-0.58l-0.086,-0.57l-0.081,-0.553l-0.04,-0.288l-0.038,-0.277l-0.037,-0.275l-0.036,-0.273l-0.035,-0.272l-0.033,-0.27l-0.033,-0.269l-0.031,-0.267l-0.03,-0.266l-0.028,-0.265l-0.027,-0.265l-0.026,-0.263l-0.025,-0.262l-0.023,-0.262l-0.022,-0.262l-0.02,-0.262l-0.019,-0.261l-0.017,-0.262l-0.016,-0.263l-0.014,-0.263l-0.012,-0.264l-0.01,-0.266l-0.008,-0.267l-0.006,-0.27l-0.004,-0.273l-0.002,-0.275l0.002,-0.279l0.004,-0.261l0.014,-0.584l0.017,-0.566l0.02,-0.569l0.022,-0.573l0.025,-0.575l0.027,-0.579l0.03,-0.582l0.032,-0.584l0.035,-0.588l0.027,-0.436l0.008,-0.155l0.035,-0.595l0.036,-0.597l0.039,-0.601l0.041,-0.603l0.044,-0.607l0.046,-0.61l0.048,-0.613l0.051,-0.616l0.053,-0.619l0.055,-0.622l0.057,-0.625l0.06,-0.628l0.061,-0.631l0.064,-0.634l0.067,-0.637l0.068,-0.64l0.071,-0.642l0.072,-0.646l0.075,-0.648l0.077,-0.651l0.08,-0.654l0.081,-0.657l0.083,-0.659l0.086,-0.663l0.087,-0.665l0.09,-0.667l0.092,-0.67l0.093,-0.673l0.096,-0.676l0.098,-0.678l0.1,-0.68l0.102,-0.683l0.103,-0.686l0.106,-0.688l0.108,-0.69l0.11,-0.693l0.112,-0.696l0.113,-0.697l0.116,-0.7l0.117,-0.702l0.12,-0.705l0.121,-0.706l0.124,-0.709l0.125,-0.711l0.127,-0.713l0.129,-0.715l0.13,-0.718l0.133,-0.719l0.135,-0.721l0.136,-0.724l0.138,-0.725l0.14,-0.727l0.142,-0.729l0.143,-0.731l0.146,-0.733l0.147,-0.734l0.149,-0.736l0.15,-0.738l0.153,-0.74l0.154,-0.741l0.156,-0.743l0.157,-0.744l0.16,-0.746l0.161,-0.748l0.162,-0.749l0.165,-0.75l0.166,-0.752l0.168,-0.753l0.169,-0.754l0.171,-0.756l0.173,-0.757l0.174,-0.759l0.176,-0.759l0.178,-0.761l0.179,-0.762l0.181,-0.763l0.182,-0.764l0.184,-0.765l0.186,-0.766l0.187,-0.767l0.189,-0.768l0.19,-0.768l0.192,-0.77l0.193,-0.771l0.195,-0.771l0.196,-0.772l0.198,-0.773l0.199,-0.773l0.201,-0.774l0.203,-0.775l0.203,-0.775l0.206,-0.776l0.206,-0.776l0.208,-0.777l0.21,-0.777l0.211,-0.778l0.212,-0.777l0.214,-0.779l0.216,-0.778l0.216,-0.779l0.218,-0.779l0.22,-0.779l0.22,-0.78l0.223,-0.779l0.223,-0.78l0.225,-0.779l0.226,-0.78l0.228,-0.779l0.228,-0.78l0.231,-0.779l0.231,-0.78l0.233,-0.779l0.234,-0.779l0.235,-0.778l0.237,-0.779l0.237,-0.778l0.24,-0.777l0.24,-0.778l0.241,-0.777l0.243,-0.776l0.244,-0.776l0.246,-0.775l0.246,-0.775l0.248,-0.774l0.248,-0.774l0.25,-0.773l0.252,-0.772l0.252,-0.772l0.254,-0.77l0.254,-0.77l0.256,-0.769l0.257,-0.768l0.258,-0.768l0.259,-0.766l0.261,-0.765l0.261,-0.764l0.263,-0.764l0.263,-0.762l0.265,-0.761l0.192,-0.549l0.073,-0.211l0.265,-0.759l0.267,-0.758l0.267,-0.757l0.268,-0.755l0.27,-0.754l0.27,-0.753l0.272,-0.751l0.272,-0.75l0.274,-0.748l0.274,-0.747l0.276,-0.746l0.276,-0.743l0.278,-0.742l0.278,-0.741l0.28,-0.739l0.28,-0.737l0.281,-0.735l0.283,-0.734l0.283,-0.731l0.284,-0.73l0.286,-0.728l0.286,-0.726l0.287,-0.724l0.288,-0.722l0.289,-0.721l0.29,-0.718l0.29,-0.716l0.292,-0.713l0.293,-0.712l0.293,-0.71l0.294,-0.707l0.296,-0.705l0.296,-0.702l0.297,-0.701l0.298,-0.698l0.298,-0.696l0.3,-0.693l0.3,-0.691l0.302,-0.688l0.302,-0.686l0.303,-0.683l0.304,-0.68l0.304,-0.678l0.306,-0.676l0.306,-0.673l0.307,-0.67l0.309,-0.667l0.308,-0.664l0.31,-0.662l0.311,-0.659l0.311,-0.656l0.312,-0.653l0.313,-0.65l0.314,-0.648l0.315,-0.644l0.315,-0.641l0.316,-0.638l0.318,-0.636l0.318,-0.632l0.318,-0.629l0.32,-0.626l0.321,-0.622l0.321,-0.62l0.322,-0.616l0.323,-0.613l0.324,-0.609l0.325,-0.607l0.325,-0.603l0.327,-0.599l0.327,-0.597l0.328,-0.593l0.329,-0.589l0.33,-0.586l0.331,-0.582l0.332,-0.579l0.333,-0.576l0.334,-0.571l0.334,-0.569l0.336,-0.564l0.337,-0.561l0.337,-0.557l0.339,-0.554l0.339,-0.55l0.341,-0.546l0.342,-0.543l0.343,-0.538l0.344,-0.535l0.345,-0.531l0.346,-0.528l0.348,-0.523l0.348,-0.52l0.35,-0.515l0.351,-0.512l0.353,-0.508l0.354,-0.504l0.349,-0.492l0.184,-0.256l0.178,-0.248l0.179,-0.246l0.179,-0.246l0.18,-0.244l0.18,-0.244l0.18,-0.242l0.181,-0.242l0.181,-0.24l0.182,-0.24l0.182,-0.238l0.182,-0.238l0.183,-0.236l0.183,-0.235l0.184,-0.235l0.184,-0.233l0.184,-0.232l0.185,-0.232l0.186,-0.23l0.901,-1.103l0.87,-0.765l1.377,-1.067l1.498,-0.888l1.048,-0.537l1.886,-0.598l1.569,-0.307l1.452,-0.118l1.079,0.011l0.715,0.049l0.514,0.056l0.394,0.054l0.317,0.05l0.265,0.047l0.264,0.051l0.35,0.072l0.337,0.076l0.306,0.072l0.288,0.071l0.279,0.071l0.272,0.071l0.27,0.072l0.269,0.073l0.267,0.074l0.267,0.076l0.266,0.076l0.265,0.077l0.264,0.077l0.261,0.078l0.26,0.079l0.256,0.079l0.255,0.079l0.252,0.08l0.252,0.082l0.255,0.084l0.261,0.088l0.278,0.097l0.309,0.113l0.376,0.144l0.434,0.18l0.404,0.181l0.476,0.23l0.705,0.378l0.751,0.471l0.639,0.45l0.357,0.253l0.354,0.256l0.351,0.257l0.349,0.258l0.346,0.261l0.343,0.262l0.34,0.263l0.338,0.266l0.335,0.267l0.332,0.268l0.33,0.271l0.327,0.272l0.324,0.273l0.321,0.276l0.318,0.277l0.316,0.278l0.313,0.281l0.31,0.282l0.307,0.283l0.305,0.285l0.302,0.287l0.298,0.289l0.296,0.29l0.294,0.292l0.29,0.293l0.287,0.295l0.285,0.297l0.282,0.298l0.278,0.3l0.276,0.301l0.273,0.303l0.27,0.304l0.268,0.306l0.264,0.307l0.261,0.309l0.258,0.31l0.256,0.312l0.252,0.313l0.249,0.315l0.247,0.316l0.243,0.317l0.24,0.319l0.238,0.32l0.234,0.321l0.231,0.323l0.229,0.324l0.225,0.325l0.222,0.326l0.219,0.328l0.216,0.329l0.213,0.33l0.21,0.331l0.207,0.332l0.204,0.333l0.2,0.335l0.198,0.335l0.194,0.336l0.192,0.337l0.188,0.339l0.185,0.339l0.183,0.34l0.179,0.341l0.176,0.341l0.173,0.343l0.17,0.343l0.167,0.344l0.164,0.345l0.16,0.345l0.158,0.346l0.155,0.347l0.151,0.347l0.149,0.348l0.146,0.348l0.142,0.349l0.14,0.349l0.137,0.35l0.134,0.35l0.13,0.351l0.128,0.35l0.125,0.352l0.122,0.351l0.119,0.352l0.117,0.352l0.113,0.353l0.111,0.352l0.108,0.353l0.104,0.353l0.103,0.353l0.099,0.353l0.097,0.353l0.094,0.353l0.091,0.354l0.089,0.353l0.085,0.353l0.084,0.354l0.08,0.353l0.078,0.353l0.076,0.353l0.073,0.353l0.07,0.353l0.068,0.353l0.065,0.352l0.063,0.353l0.061,0.352l0.058,0.352l0.056,0.352l0.053,0.351l0.051,0.352l0.049,0.351l0.046,0.351l0.044,0.35l0.042,0.35l0.04,0.35l0.037,0.35l0.036,0.349l0.033,0.349l0.031,0.349l0.029,0.348l0.027,0.348l0.024,0.347l0.023,0.347l0.021,0.347l0.019,0.346l0.017,0.346l0.015,0.345l0.013,0.345l0.011,0.345l0.01,0.344l0.007,0.344l0.006,0.343l0.004,0.343l0.002,0.342l0.001,0.342l-0.001,0.342l-0.003,0.341l-0.005,0.34l-0.006,0.34l-0.008,0.34l-0.009,0.339l-0.011,0.339l-0.013,0.338l-0.014,0.338l-0.015,0.337l-0.018,0.337l-0.018,0.336l-0.02,0.336l-0.021,0.335l-0.023,0.335l-0.024,0.334l-0.026,0.334l-0.027,0.333l-0.028,0.333l-0.029,0.332l-0.031,0.332l-0.032,0.332l-0.033,0.331l-0.035,0.33l-0.035,0.33l-0.037,0.329l-0.038,0.329l-0.039,0.329l-0.041,0.328l-0.041,0.327l-0.043,0.327l-0.043,0.327l-0.045,0.326l-0.046,0.325l-0.046,0.325l-0.048,0.325l-0.049,0.324l-0.049,0.324l-0.051,0.323l-0.051,0.322l-0.053,0.323l-0.053,0.321l-0.054,0.321l-0.055,0.321l-0.056,0.32l-0.057,0.32l-0.057,0.319l-0.059,0.319l-0.059,0.319l-0.062,0.326l-0.12,0.626l-0.125,0.632l-0.128,0.631l-0.13,0.628l-0.133,0.627l-0.136,0.625l-0.137,0.623l-0.14,0.621l-0.142,0.619l-0.144,0.618l-0.146,0.615l-0.147,0.614l-0.15,0.611l-0.15,0.61l-0.152,0.608l-0.154,0.606l-0.155,0.604l-0.155,0.601l-0.157,0.6l-0.158,0.599l-0.158,0.596l-0.159,0.594l-0.16,0.592l-0.16,0.59l-0.161,0.587l-0.162,0.59l-0.321,1.161l-0.322,1.156l-0.322,1.149l-0.639,2.274l-0.425,1.507l-0.215,0.758l-0.216,0.756l-0.217,0.756l-0.219,0.756l-0.222,0.757l-0.224,0.758l-0.227,0.759l-0.229,0.754l-0.119,0.388l-0.117,0.381l-0.119,0.382l-0.12,0.383l-0.121,0.383l-0.123,0.384l-0.123,0.384l-0.125,0.385l-0.126,0.385l-0.128,0.387l-0.129,0.386l-0.131,0.388l-0.132,0.388l-0.133,0.389l-0.135,0.39l-0.137,0.39l-0.139,0.391l-0.14,0.392l-0.142,0.392l-0.144,0.394l-0.146,0.394l-0.148,0.395l-0.15,0.396l-0.152,0.396l-0.153,0.398l-0.156,0.398l-0.158,0.399l-0.16,0.399l-0.163,0.401l-0.164,0.401l-0.167,0.403l-0.17,0.403l-0.171,0.404l-0.174,0.404l-0.177,0.406l-0.179,0.406l-0.181,0.407l-0.184,0.409l-0.187,0.408l-0.189,0.41l-0.192,0.411l-0.194,0.411l-0.197,0.412l-0.194,0.401l-1.182,2.431l-0.604,1.239l-0.613,1.257l-0.624,1.275l-0.632,1.293l-0.643,1.31l-0.652,1.326l-0.662,1.343l-0.672,1.359l-0.68,1.375l-0.691,1.39l-0.699,1.405l-0.709,1.419l-0.718,1.433l-0.727,1.447l-0.737,1.46l-0.745,1.472l-0.754,1.485l-0.764,1.498l-0.772,1.508l-0.781,1.52l-0.79,1.531l-0.797,1.539l-0.404,0.777l-0.405,0.777l-0.407,0.779l-0.409,0.782l-0.411,0.784l-0.413,0.787l-0.415,0.788l-0.418,0.791l-0.42,0.793l-0.422,0.795l-0.423,0.797l-0.426,0.799l-0.429,0.8l-0.43,0.803l-0.432,0.805l-0.434,0.806l-0.437,0.808l-0.438,0.81l-0.441,0.812l-0.443,0.813l-0.444,0.815l-0.447,0.816l-0.449,0.817l-0.451,0.82l-0.452,0.82l-0.455,0.822l-0.457,0.823l-0.459,0.824l-0.461,0.825l-0.463,0.827l-0.464,0.827l-0.467,0.829l-0.469,0.83l-0.471,0.83l-0.473,0.831l-0.475,0.833l-0.476,0.833l-0.479,0.834l-0.481,0.834l-0.482,0.835l-0.485,0.836l-0.486,0.836l-0.488,0.837l-0.491,0.837l-0.492,0.838l-0.494,0.838l-0.496,0.839l-0.247,0.415l-0.252,0.423l-0.502,0.838l-0.503,0.838l-0.505,0.838l-0.508,0.838l-0.509,0.838l-0.511,0.839l-0.512,0.838l-0.515,0.838l-0.517,0.838l-0.518,0.838l-0.52,0.837l-0.523,0.838l-0.524,0.836l-0.526,0.837l-0.527,0.836l-0.53,0.836l-0.531,0.835l-0.533,0.834l-0.535,0.834l-0.537,0.833l-0.539,0.833l-0.54,0.832l-0.543,0.831l-0.544,0.83l-0.546,0.829l-0.548,0.828l-0.549,0.827l-0.551,0.827l-0.554,0.825l-0.555,0.824l-0.196,0.291l0.247,0.997l0.453,1.819l0.464,1.858l0.475,1.895l0.486,1.932l0.439,1.742l0.058,0.224l0.511,2l2.134,8.325l0.552,2.159l0.559,2.187l0.565,2.215l0.571,2.242l0.575,2.268l0.581,2.293l0.585,2.318l0.199,0.796l0.125,-0.187l0.136,-0.206l0.13,-0.198l0.124,-0.189l0.117,-0.18l0.111,-0.171l0.107,-0.168l0.527,-0.845l0.531,-0.855l0.532,-0.859l0.533,-0.864l0.533,-0.867l0.533,-0.872l0.534,-0.876l0.533,-0.879l0.534,-0.883l0.534,-0.887l0.533,-0.891l0.532,-0.893l0.532,-0.897l0.532,-0.901l0.53,-0.903l0.53,-0.906l0.529,-0.91l0.527,-0.912l0.526,-0.915l0.524,-0.917l0.523,-0.92l0.521,-0.922l0.519,-0.925l0.518,-0.928l0.257,-0.463l0.257,-0.464l0.256,-0.465l0.256,-0.466l0.256,-0.466l0.255,-0.467l0.254,-0.467l0.253,-0.467l0.253,-0.468l0.252,-0.468l0.252,-0.469l0.25,-0.469l0.25,-0.469l0.249,-0.47l0.249,-0.47l0.247,-0.47l0.247,-0.471l0.246,-0.471l0.245,-0.471l0.245,-0.472l0.243,-0.472l0.243,-0.472l0.241,-0.472l0.241,-0.472l0.24,-0.473l0.239,-0.473l0.237,-0.473l0.237,-0.473l0.236,-0.474l0.235,-0.473l0.234,-0.474l0.232,-0.474l0.232,-0.474l0.231,-0.474l0.229,-0.474l0.229,-0.474l0.227,-0.474l0.226,-0.474l0.225,-0.474l0.224,-0.475l0.222,-0.474l0.221,-0.474l0.22,-0.474l0.219,-0.474l0.218,-0.475l0.216,-0.474l0.215,-0.473l0.214,-0.474l0.212,-0.474l0.211,-0.474l0.209,-0.473l0.209,-0.473l0.206,-0.473l0.206,-0.473l0.204,-0.473l0.202,-0.473l0.201,-0.472l0.2,-0.472l0.198,-0.472l0.197,-0.472l0.195,-0.471l0.193,-0.471l0.192,-0.471l0.19,-0.47l0.189,-0.471l0.187,-0.469l0.186,-0.47l0.184,-0.469l0.182,-0.469l0.18,-0.468l0.179,-0.468l0.177,-0.467l0.176,-0.467l0.174,-0.467l0.171,-0.466l0.171,-0.466l0.168,-0.465l0.167,-0.465l0.164,-0.464l0.165,-0.469l0.499,-1.432l0.749,-2.143l0.864,-2.47l0.845,-2.415l0.694,-1.98l0.249,-0.709l0.163,-0.462l0.052,-0.153l0.023,-0.065l0.251,-0.613l0.354,-0.561l0.443,-0.491l0.522,-0.408l0.584,-0.313l0.629,-0.208l0.655,-0.097l0.662,0.017l0.65,0.13l0.617,0.239l0.568,0.342l0.5,0.434l0.418,0.514l0.325,0.577l0.22,0.625l0.11,0.653l-0.004,0.662l-0.117,0.652l-0.022,0.071l-0.024,0.074l0.004,0.002l-0.01,0.037l0.018,-0.059l-0.026,0.114l-0.107,0.459Zm-102.365,228.595l-0.011,0.101l0.015,-0.112l-0.011,0.102l0.013,-0.111l-0.01,0.104l0.013,-0.109l-0.009,0.104l0.011,-0.106l-0.009,0.105l0.01,-0.104l-0.007,0.105l0.009,-0.102l-0.007,0.106l0.008,-0.1l-0.006,0.107l0.007,-0.098l-0.005,0.108l0.007,-0.097l-0.005,0.109l0.006,-0.095l-0.004,0.11l0.005,-0.093l-0.003,0.11l0.004,-0.091l-0.002,0.111l0.003,-0.09l0,0.068l0.001,0.069l0.002,-0.086l0.001,0.071l0.002,0.071l0,-0.124l0.005,0.231l-0.001,-0.161l0.007,0.156l0.008,0.159l-0.004,-0.149l0.011,0.166l0.013,0.17l-0.007,-0.14l0.015,0.177l0.017,0.18l-0.009,-0.13l0.02,0.186l0.021,0.188l-0.011,-0.121l0.025,0.195l0.026,0.197l-0.013,-0.114l0.029,0.203l0.031,0.205l-0.013,-0.107l0.033,0.21l0.029,0.163l0.03,0.167l0.033,0.172l0.035,0.176l0.037,0.181l0.039,0.185l0.042,0.189l0.043,0.193l0.045,0.197l0.048,0.2l0.05,0.203l0.051,0.207l0.054,0.21l0.056,0.213l0.057,0.216l0.06,0.218l0.062,0.221l0.063,0.223l0.066,0.226l0.067,0.227l0.069,0.23l0.071,0.232l0.072,0.233l0.075,0.236l0.076,0.236l0.077,0.239l0.079,0.239l0.081,0.241l0.083,0.242l0.083,0.243l0.086,0.244l0.086,0.245l0.089,0.246l0.089,0.246l0.091,0.247l0.092,0.247l0.093,0.248l0.095,0.248l0.095,0.248l0.097,0.248l0.098,0.248l0.099,0.248l0.099,0.248l0.101,0.248l0.102,0.247l0.102,0.246l0.104,0.247l0.104,0.245l0.105,0.245l0.105,0.244l0.106,0.243l0.107,0.241l0.107,0.241l0.108,0.24l0.108,0.238l0.109,0.237l0.109,0.236l0.109,0.234l0.11,0.232l0.11,0.231l0.11,0.228l0.11,0.227l0.11,0.225l0.11,0.223l0.11,0.22l0.11,0.218l0.11,0.216l0.109,0.213l0.11,0.211l0.108,0.208l0.109,0.205l0.108,0.202l0.107,0.199l0.107,0.196l0.106,0.193l0.106,0.189l0.104,0.186l0.104,0.182l0.103,0.179l0.101,0.175l0.1,0.171l0.099,0.166l0.098,0.163l0.096,0.158l0.095,0.153l0.093,0.149l0.091,0.144l0.089,0.14l0.087,0.133l0.085,0.129l0.082,0.123l0.079,0.117l0.077,0.112l0.099,0.144l-0.05,-0.078l0.096,0.138l0.095,0.134l-0.056,-0.083l0.091,0.127l0.091,0.123l-0.063,-0.09l0.087,0.116l0.085,0.112l-0.07,-0.097l0.081,0.103l0.079,0.1l-0.079,-0.105l0.073,0.09l0.072,0.087l-0.09,-0.115l0.073,0.086l0.146,0.169l0.153,0.174l0.152,0.172l0.153,0.168l0.153,0.167l0.153,0.163l0.153,0.161l0.153,0.158l0.154,0.155l0.153,0.153l0.153,0.151l0.153,0.148l0.154,0.145l0.153,0.143l0.153,0.141l0.154,0.138l0.153,0.136l0.154,0.134l0.153,0.131l0.154,0.129l0.153,0.127l0.154,0.124l0.153,0.123l0.154,0.12l0.153,0.118l0.154,0.117l0.154,0.114l0.154,0.112l0.153,0.11l0.154,0.108l0.154,0.106l0.154,0.104l0.154,0.103l0.154,0.1l0.154,0.099l0.154,0.097l0.155,0.095l0.154,0.093l0.155,0.091l0.154,0.09l0.155,0.088l0.155,0.087l0.155,0.084l0.155,0.083l0.155,0.082l0.156,0.08l0.155,0.078l0.156,0.077l0.156,0.075l0.156,0.073l0.157,0.073l0.156,0.07l0.157,0.069l0.157,0.068l0.157,0.066l0.158,0.065l0.158,0.063l0.158,0.062l0.158,0.061l0.158,0.059l0.159,0.058l0.159,0.056l0.159,0.055l0.16,0.054l0.16,0.052l0.16,0.051l0.161,0.05l0.161,0.048l0.161,0.047l0.161,0.046l0.162,0.044l0.162,0.043l0.163,0.042l0.163,0.041l0.163,0.039l0.163,0.038l0.164,0.037l0.164,0.036l0.165,0.034l0.165,0.033l0.165,0.032l0.166,0.031l0.166,0.029l0.166,0.029l0.166,0.027l0.167,0.025l0.168,0.025l0.167,0.023l0.168,0.022l0.169,0.021l0.168,0.02l0.169,0.019l0.169,0.017l0.17,0.016l0.17,0.015l0.17,0.014l0.171,0.012l0.17,0.012l0.172,0.01l0.171,0.009l0.172,0.008l0.171,0.007l0.173,0.005l0.172,0.004l0.173,0.004l0.173,0.002l0.173,0l0.173,0l0.174,-0.001l0.173,-0.003l0.174,-0.004l0.174,-0.005l0.175,-0.006l0.174,-0.007l0.175,-0.008l0.174,-0.01l0.175,-0.01l0.175,-0.012l0.175,-0.013l0.175,-0.014l0.175,-0.015l0.175,-0.016l0.176,-0.018l0.175,-0.018l0.175,-0.02l0.176,-0.02l0.175,-0.022l0.175,-0.023l0.175,-0.024l0.175,-0.025l0.176,-0.026l0.175,-0.027l0.007,-0.001l0.168,-0.026l0.175,-0.028l0.175,-0.029l0.174,-0.03l0.175,-0.031l0.174,-0.032l0.175,-0.033l0.174,-0.034l0.174,-0.035l0.173,-0.036l0.174,-0.038l0.173,-0.038l0.173,-0.039l0.172,-0.04l0.172,-0.041l0.172,-0.042l0.172,-0.043l0.171,-0.044l0.171,-0.045l0.17,-0.045l0.17,-0.047l0.17,-0.048l0.169,-0.048l0.169,-0.05l0.168,-0.05l0.168,-0.051l0.167,-0.052l0.167,-0.053l0.166,-0.053l0.165,-0.055l0.165,-0.055l0.165,-0.056l0.163,-0.057l0.163,-0.058l0.163,-0.058l0.162,-0.059l0.161,-0.06l0.16,-0.061l0.159,-0.061l0.159,-0.062l0.158,-0.063l0.158,-0.064l0.156,-0.064l0.156,-0.064l0.154,-0.066l0.154,-0.066l0.153,-0.067l0.152,-0.067l0.151,-0.068l0.151,-0.068l0.149,-0.069l0.148,-0.069l0.147,-0.07l0.146,-0.071l0.146,-0.071l0.144,-0.071l0.143,-0.072l0.142,-0.072l0.141,-0.073l0.139,-0.073l0.139,-0.073l0.137,-0.074l0.136,-0.074l0.135,-0.075l0.134,-0.075l0.132,-0.075l0.131,-0.075l0.13,-0.076l0.128,-0.075l0.128,-0.076l0.125,-0.076l0.125,-0.077l0.123,-0.076l0.121,-0.077l0.121,-0.076l0.118,-0.077l0.118,-0.077l0.115,-0.076l0.114,-0.077l0.113,-0.077l0.111,-0.076l0.11,-0.077l0.108,-0.076l0.106,-0.076l0.104,-0.076l0.103,-0.076l0.102,-0.076l0.099,-0.075l0.098,-0.075l0.096,-0.075l0.095,-0.074l0.092,-0.074l0.129,-0.102l-0.075,0.058l0.126,-0.102l0.125,-0.102l-0.076,0.059l0.123,-0.102l0.122,-0.102l-0.076,0.062l0.119,-0.102l0.118,-0.101l-0.076,0.063l0.116,-0.101l0.114,-0.102l-0.077,0.067l0.112,-0.101l0.111,-0.102l-0.078,0.069l0.108,-0.1l0.108,-0.101l-0.079,0.071l0.105,-0.1l0.103,-0.1l-0.079,0.074l0.101,-0.099l0.1,-0.099l-0.08,0.076l0.097,-0.098l0.096,-0.098l-0.081,0.079l0.093,-0.097l0.092,-0.098l-0.081,0.083l0.089,-0.096l0.088,-0.096l-0.082,0.086l0.086,-0.095l0.083,-0.095l-0.082,0.09l0.081,-0.094l0.08,-0.093l-0.083,0.093l0.077,-0.092l0.075,-0.092l-0.083,0.098l0.073,-0.09l0.071,-0.091l-0.084,0.102l0.077,-0.098l0.071,-0.092l-0.052,0.064l0.079,-0.103l0.078,-0.103l-0.051,0.064l0.079,-0.104l0.077,-0.105l-0.049,0.064l0.077,-0.106l0.077,-0.107l-0.048,0.064l0.077,-0.108l0.077,-0.108l-0.047,0.064l0.076,-0.11l0.053,-0.078l0.053,-0.079l0.053,-0.08l0.053,-0.081l0.053,-0.082l0.053,-0.083l0.053,-0.083l0.053,-0.085l0.054,-0.085l0.053,-0.087l0.053,-0.087l0.052,-0.088l0.053,-0.089l0.053,-0.091l0.053,-0.091l0.053,-0.092l0.053,-0.093l0.053,-0.094l0.052,-0.094l0.053,-0.096l0.053,-0.097l0.052,-0.098l0.053,-0.098l0.052,-0.1l0.053,-0.101l0.052,-0.101l0.052,-0.103l0.052,-0.103l0.052,-0.105l0.052,-0.105l0.052,-0.106l0.052,-0.108l0.052,-0.108l0.051,-0.109l0.052,-0.111l0.051,-0.111l0.051,-0.112l0.051,-0.113l0.051,-0.115l0.051,-0.115l0.051,-0.116l0.051,-0.117l0.05,-0.118l0.05,-0.119l0.05,-0.12l0.05,-0.121l0.05,-0.122l0.05,-0.123l0.05,-0.124l0.043,-0.111l0.104,-0.266l0.098,-0.257l0.096,-0.26l0.096,-0.264l0.095,-0.268l0.095,-0.272l0.093,-0.275l0.093,-0.279l0.092,-0.283l0.091,-0.287l0.089,-0.291l0.089,-0.294l0.088,-0.298l0.087,-0.302l0.086,-0.305l0.085,-0.309l0.084,-0.313l0.082,-0.316l0.082,-0.32l0.08,-0.323l0.08,-0.327l0.078,-0.33l0.077,-0.334l0.076,-0.338l0.074,-0.341l0.073,-0.344l0.073,-0.348l0.07,-0.351l0.07,-0.354l0.068,-0.358l0.068,-0.361l0.065,-0.364l0.065,-0.368l0.063,-0.371l0.062,-0.374l0.06,-0.377l0.06,-0.381l0.058,-0.383l0.056,-0.387l0.055,-0.39l0.054,-0.393l0.053,-0.396l0.051,-0.399l0.049,-0.402l0.049,-0.405l0.047,-0.408l0.045,-0.411l0.044,-0.414l0.043,-0.417l0.041,-0.419l0.04,-0.423l0.039,-0.425l0.037,-0.428l0.036,-0.431l0.034,-0.433l0.033,-0.437l0.031,-0.439l0.003,-0.038l0.036,-0.403l0.039,-0.443l0.037,-0.446l0.036,-0.449l0.034,-0.452l0.033,-0.454l0.032,-0.457l0.03,-0.46l0.029,-0.462l0.028,-0.464l0.026,-0.468l0.025,-0.469l0.023,-0.472l0.022,-0.475l0.021,-0.477l0.019,-0.48l0.018,-0.481l0.017,-0.485l0.015,-0.486l0.014,-0.489l0.012,-0.491l0.011,-0.494l0.01,-0.496l0.009,-0.498l0.007,-0.5l0.006,-0.502l0.004,-0.505l0.003,-0.507l0.002,-0.509l0.001,-0.511l-0.001,-0.513l-0.003,-0.515l-0.003,-0.518l-0.005,-0.519l-0.006,-0.522l-0.007,-0.523l-0.009,-0.525l-0.01,-0.528l-0.011,-0.529l-0.013,-0.531l-0.014,-0.534l-0.015,-0.535l-0.016,-0.537l-0.018,-0.538l-0.019,-0.541l-0.02,-0.543l-0.021,-0.544l-0.023,-0.546l-0.024,-0.548l-0.025,-0.549l-0.026,-0.551l-0.028,-0.553l-0.029,-0.555l-0.03,-0.556l-0.031,-0.558l-0.033,-0.56l-0.033,-0.561l-0.035,-0.563l-0.036,-0.565l-0.037,-0.566l-0.038,-0.567l-0.04,-0.569l-0.041,-0.571l-0.041,-0.572l-0.043,-0.573l-0.045,-0.575l-0.045,-0.577l-0.046,-0.578l-0.048,-0.579l-0.048,-0.581l-0.05,-0.582l-0.051,-0.583l-0.052,-0.585l-0.053,-0.586l-0.054,-0.587l-0.055,-0.589l-0.056,-0.59l-0.058,-0.591l-0.058,-0.593l-0.06,-0.593l-0.06,-0.595l-0.022,-0.209l-0.037,-0.388l-0.059,-0.597l-0.06,-0.599l-0.06,-0.6l-0.062,-0.601l-0.063,-0.602l-0.064,-0.604l-0.065,-0.604l-0.065,-0.606l-0.067,-0.606l-0.068,-0.608l-0.069,-0.609l-0.069,-0.609l-0.071,-0.611l-0.071,-0.611l-0.073,-0.613l-0.073,-0.613l-0.075,-0.615l-0.075,-0.615l-0.076,-0.616l-0.077,-0.618l-0.078,-0.617l-0.079,-0.619l-0.08,-0.62l-0.08,-0.62l-0.082,-0.622l-0.082,-0.622l-0.083,-0.623l-0.084,-0.623l-0.084,-0.62l-0.173,-1.255l-0.176,-1.254l-0.179,-1.256l-0.182,-1.259l-0.185,-1.261l-0.188,-1.263l-0.191,-1.266l-0.194,-1.267l-0.197,-1.27l-0.2,-1.271l-0.203,-1.273l-0.205,-1.274l-0.209,-1.276l-0.21,-1.277l-0.214,-1.279l-0.215,-1.279l-0.219,-1.281l-0.22,-1.281l-0.223,-1.282l-0.226,-1.282l-0.227,-1.283l-0.23,-1.284l-0.232,-1.283l-0.233,-1.284l-0.236,-1.284l-0.238,-1.284l-0.216,-1.156l-0.127,0.22l-0.802,1.395l-0.804,1.403l-0.806,1.41l-0.807,1.418l-0.808,1.424l-0.809,1.431l-0.809,1.436l-0.81,1.443l-0.809,1.448l-0.81,1.455l-0.402,0.726l-0.404,0.729l-0.404,0.73l-0.403,0.732l-0.402,0.732l-0.403,0.733l-0.401,0.734l-0.402,0.735l-0.4,0.735l-0.401,0.737l-0.399,0.737l-0.399,0.737l-0.398,0.738l-0.398,0.739l-0.396,0.739l-0.396,0.74l-0.395,0.74l-0.394,0.74l-0.393,0.74l-0.392,0.741l-0.391,0.741l-0.39,0.741l-0.389,0.742l-0.388,0.741l-0.386,0.741l-0.386,0.741l-0.384,0.741l-0.382,0.741l-0.382,0.741l-0.38,0.74l-0.378,0.741l-0.377,0.739l-0.376,0.74l-0.374,0.739l-0.372,0.738l-0.371,0.738l-0.369,0.737l-0.367,0.737l-0.366,0.736l-0.363,0.735l-0.362,0.734l-0.36,0.734l-0.358,0.732l-0.357,0.732l-0.354,0.731l-0.352,0.729l-0.35,0.729l-0.348,0.727l-0.345,0.726l-0.344,0.725l-0.341,0.723l-0.339,0.722l-0.336,0.721l-0.334,0.719l-0.332,0.718l-0.329,0.716l-0.327,0.714l-0.324,0.713l-0.322,0.711l-0.319,0.709l-0.316,0.707l-0.314,0.706l-0.311,0.703l-0.308,0.701l-0.305,0.7l-0.303,0.697l-0.299,0.695l-0.297,0.692l-0.293,0.691l-0.291,0.688l-0.287,0.685l-0.284,0.683l-0.281,0.681l-0.278,0.677l-0.275,0.676l-0.271,0.672l-0.268,0.67l-0.265,0.667l-0.261,0.663l-0.258,0.661l-0.254,0.658l-0.251,0.655l-0.247,0.651l-0.244,0.649l-0.24,0.645l-0.236,0.641l-0.232,0.638l-0.229,0.635l-0.225,0.631l-0.221,0.627l-0.217,0.624l-0.213,0.62l-0.21,0.616l-0.205,0.612l-0.201,0.608l-0.197,0.604l-0.193,0.599l-0.011,0.035l-0.18,0.56l-0.187,0.591l-0.182,0.586l-0.18,0.588l-0.086,0.282l-0.086,0.288l-0.085,0.287l-0.084,0.285l-0.083,0.285l-0.082,0.283l-0.081,0.282l-0.08,0.281l-0.079,0.279l-0.077,0.278l-0.077,0.277l-0.075,0.276l-0.074,0.274l-0.073,0.274l-0.072,0.272l-0.071,0.27l-0.07,0.269l-0.068,0.268l-0.067,0.267l-0.067,0.265l-0.065,0.264l-0.064,0.262l-0.062,0.261l-0.062,0.259l-0.06,0.259l-0.059,0.256l-0.058,0.255l-0.057,0.254l-0.056,0.252l-0.055,0.251l-0.053,0.249l-0.052,0.248l-0.051,0.246l-0.05,0.245l-0.048,0.243l-0.048,0.241l-0.046,0.24l-0.045,0.238l-0.044,0.237l-0.042,0.235l-0.042,0.233l-0.04,0.232l-0.039,0.23l-0.038,0.228l-0.037,0.226l-0.035,0.225l-0.034,0.223l-0.033,0.221l-0.032,0.219l-0.031,0.218l-0.029,0.215l-0.029,0.214l-0.027,0.212l-0.03,0.237l0.013,-0.085l-0.013,0.101l0.016,-0.115Zm-50.368,-239.544l0.154,-0.008l-0.196,0.013l-0.198,0.015l0.15,-0.011l-0.202,0.017l-0.204,0.02l0.146,-0.014l-0.208,0.022l-0.211,0.024l0.142,-0.016l-0.214,0.027l-0.217,0.029l0.138,-0.018l-0.221,0.032l-0.223,0.034l0.134,-0.02l-0.228,0.037l-0.164,0.029l-0.168,0.031l-0.173,0.033l-0.177,0.036l-0.18,0.038l-0.185,0.04l-0.189,0.044l-0.193,0.045l-0.196,0.048l-0.201,0.051l-0.205,0.054l-0.209,0.056l-0.212,0.06l-0.217,0.062l-0.22,0.064l-0.225,0.068l-0.228,0.071l-0.183,0.058l-0.071,0.025l-0.076,0.028l-0.086,0.034l-0.123,0.053l-0.127,0.056l0.154,-0.068l-0.129,0.059l-0.129,0.06l0.149,-0.069l-0.131,0.062l-0.131,0.065l0.144,-0.07l-0.133,0.067l-0.134,0.069l0.139,-0.071l-0.135,0.072l-0.135,0.074l0.133,-0.073l-0.137,0.077l-0.137,0.078l0.129,-0.073l-0.139,0.082l-0.14,0.083l0.125,-0.074l-0.141,0.086l-0.142,0.089l0.12,-0.075l-0.143,0.091l-0.143,0.094l0.116,-0.075l-0.145,0.096l-0.145,0.098l0.111,-0.075l-0.146,0.102l-0.146,0.103l0.107,-0.075l-0.148,0.106l-0.147,0.108l0.102,-0.075l-0.149,0.111l-0.149,0.113l0.099,-0.075l-0.151,0.116l-0.15,0.118l0.095,-0.074l-0.151,0.121l-0.152,0.123l0.091,-0.074l-0.152,0.126l-0.109,0.091l-0.11,0.094l-0.111,0.097l-0.113,0.099l-0.114,0.101l-0.115,0.105l-0.116,0.106l-0.117,0.11l-0.119,0.112l-0.12,0.114l-0.12,0.118l-0.122,0.119l-0.122,0.123l-0.124,0.124l-0.124,0.128l-0.126,0.13l-0.126,0.132l-0.127,0.135l-0.127,0.138l-0.129,0.14l-0.129,0.142l-0.13,0.145l-0.13,0.147l-0.132,0.15l-0.131,0.152l-0.133,0.155l-0.132,0.157l-0.134,0.16l-0.134,0.162l-0.134,0.164l-0.135,0.167l-0.135,0.168l-0.135,0.172l-0.136,0.173l-0.137,0.176l-0.136,0.178l-0.137,0.181l-0.137,0.182l-0.137,0.185l-0.138,0.188l-0.138,0.189l-0.138,0.191l-0.138,0.194l-0.139,0.196l-0.138,0.198l-0.139,0.2l-0.138,0.202l-0.139,0.204l-0.139,0.207l-0.139,0.208l-0.139,0.211l-0.138,0.212l-0.139,0.215l-0.139,0.216l-0.139,0.218l-0.139,0.221l-0.138,0.222l-0.139,0.224l-0.138,0.226l-0.139,0.228l-0.138,0.23l-0.138,0.232l-0.138,0.233l-0.138,0.236l-0.137,0.237l-0.137,0.239l-0.138,0.241l-0.136,0.242l-0.137,0.244l-0.136,0.246l-0.136,0.248l-0.136,0.249l-0.136,0.251l-0.135,0.252l-0.135,0.254l-0.134,0.256l-0.135,0.258l-0.134,0.259l-0.133,0.26l-0.133,0.262l-0.133,0.264l-0.132,0.265l-0.132,0.266l-0.132,0.268l-0.131,0.27l-0.131,0.271l-0.13,0.272l-0.13,0.274l-0.129,0.275l-0.129,0.277l-0.128,0.278l-0.128,0.279l-0.127,0.281l-0.064,0.142l-0.064,0.139l-0.127,0.283l-0.127,0.284l-0.126,0.286l-0.125,0.286l-0.125,0.288l-0.125,0.289l-0.124,0.29l-0.123,0.292l-0.123,0.292l-0.122,0.294l-0.122,0.295l-0.121,0.296l-0.12,0.297l-0.12,0.298l-0.119,0.299l-0.118,0.3l-0.118,0.302l-0.117,0.302l-0.117,0.303l-0.116,0.305l-0.115,0.305l-0.114,0.306l-0.114,0.307l-0.113,0.308l-0.112,0.31l-0.112,0.309l-0.111,0.311l-0.11,0.312l-0.11,0.312l-0.108,0.314l-0.108,0.314l-0.107,0.315l-0.107,0.316l-0.105,0.316l-0.105,0.317l-0.104,0.318l-0.104,0.319l-0.102,0.319l-0.102,0.32l-0.101,0.321l-0.1,0.321l-0.099,0.322l-0.098,0.323l-0.098,0.323l-0.097,0.324l-0.096,0.325l-0.095,0.325l-0.094,0.325l-0.093,0.326l-0.093,0.327l-0.091,0.327l-0.091,0.327l-0.09,0.328l-0.089,0.329l-0.088,0.328l-0.087,0.33l-0.086,0.329l-0.085,0.33l-0.085,0.331l-0.083,0.331l-0.083,0.331l-0.081,0.331l-0.081,0.332l-0.079,0.332l-0.079,0.332l-0.078,0.333l-0.077,0.332l-0.076,0.333l-0.075,0.334l-0.073,0.333l-0.073,0.334l-0.072,0.333l-0.071,0.334l-0.07,0.334l-0.069,0.334l-0.068,0.335l-0.067,0.334l-0.066,0.334l-0.065,0.335l-0.064,0.334l-0.063,0.334l-0.061,0.335l-0.061,0.334l-0.06,0.335l-0.059,0.334l-0.057,0.334l-0.057,0.334l-0.055,0.335l-0.055,0.334l-0.053,0.333l-0.053,0.334l-0.051,0.334l-0.05,0.333l-0.049,0.333l-0.048,0.333l-0.047,0.333l-0.046,0.332l-0.045,0.332l-0.043,0.332l-0.043,0.332l-0.041,0.331l-0.04,0.331l-0.04,0.331l-0.038,0.33l-0.037,0.33l-0.035,0.329l-0.035,0.33l-0.034,0.328l-0.032,0.328l-0.031,0.328l-0.03,0.327l-0.029,0.327l-0.028,0.326l-0.027,0.326l-0.026,0.325l-0.024,0.325l-0.023,0.324l-0.022,0.323l-0.021,0.323l-0.02,0.322l-0.019,0.322l-0.017,0.321l-0.016,0.32l-0.016,0.319l-0.013,0.319l-0.013,0.318l-0.012,0.317l-0.01,0.317l-0.009,0.315l-0.009,0.315l-0.006,0.314l-0.006,0.314l-0.005,0.312l-0.003,0.311l-0.002,0.311l-0.001,0.31l0,0.308l0.002,0.308l0.002,0.307l0.004,0.306l0.005,0.305l0.006,0.303l0.004,0.171l0.063,-0.039l0.195,-0.121l0.194,-0.123l0.194,-0.125l0.194,-0.127l0.193,-0.128l0.193,-0.13l0.193,-0.132l0.193,-0.133l0.192,-0.136l0.192,-0.136l0.192,-0.139l0.192,-0.14l0.191,-0.142l0.191,-0.144l0.19,-0.146l0.191,-0.147l0.19,-0.149l0.19,-0.15l0.189,-0.152l0.189,-0.154l0.189,-0.155l0.189,-0.158l0.188,-0.158l0.188,-0.161l0.188,-0.162l0.187,-0.164l0.187,-0.165l0.186,-0.167l0.186,-0.169l0.186,-0.17l0.186,-0.172l0.185,-0.174l0.185,-0.175l0.184,-0.176l0.184,-0.179l0.183,-0.179l0.184,-0.182l0.182,-0.183l0.183,-0.184l0.181,-0.186l0.182,-0.188l0.181,-0.189l0.18,-0.191l0.18,-0.192l0.18,-0.193l0.179,-0.195l0.179,-0.197l0.178,-0.198l0.178,-0.2l0.177,-0.201l0.177,-0.202l0.176,-0.204l0.176,-0.205l0.175,-0.207l0.175,-0.208l0.174,-0.21l0.173,-0.21l0.173,-0.213l0.173,-0.213l0.172,-0.215l0.159,-0.201l0.013,-0.014l0.193,-0.196l0.192,-0.197l0.192,-0.199l0.191,-0.2l0.191,-0.202l0.191,-0.203l0.19,-0.204l0.19,-0.206l0.189,-0.207l0.189,-0.209l0.189,-0.21l0.188,-0.212l0.187,-0.213l0.187,-0.214l0.187,-0.216l0.186,-0.217l0.186,-0.218l0.185,-0.219l0.184,-0.221l0.184,-0.222l0.184,-0.224l0.183,-0.224l0.182,-0.226l0.182,-0.227l0.181,-0.228l0.181,-0.23l0.18,-0.23l0.179,-0.232l0.179,-0.233l0.178,-0.234l0.178,-0.235l0.177,-0.237l0.176,-0.237l0.176,-0.239l0.175,-0.239l0.174,-0.241l0.174,-0.241l0.172,-0.243l0.173,-0.244l0.171,-0.244l0.171,-0.246l0.17,-0.247l0.169,-0.247l0.169,-0.249l0.168,-0.249l0.167,-0.251l0.166,-0.251l0.166,-0.252l0.164,-0.253l0.164,-0.254l0.164,-0.255l0.162,-0.255l0.162,-0.257l0.16,-0.257l0.16,-0.258l0.16,-0.258l0.158,-0.26l0.157,-0.26l0.157,-0.261l0.156,-0.262l0.155,-0.262l0.154,-0.263l0.153,-0.263l0.152,-0.265l0.152,-0.264l0.15,-0.266l0.15,-0.266l0.148,-0.267l0.148,-0.267l0.147,-0.268l0.146,-0.268l0.145,-0.269l0.144,-0.269l0.143,-0.27l0.142,-0.27l0.142,-0.271l0.14,-0.271l0.139,-0.272l0.138,-0.272l0.138,-0.272l0.136,-0.273l0.136,-0.273l0.134,-0.274l0.133,-0.274l0.133,-0.274l0.131,-0.274l0.13,-0.275l0.129,-0.275l0.129,-0.275l0.127,-0.276l0.126,-0.275l0.125,-0.276l0.124,-0.276l0.123,-0.277l0.122,-0.276l0.121,-0.276l0.12,-0.277l0.119,-0.277l0.117,-0.277l0.117,-0.277l0.115,-0.277l0.115,-0.277l0.113,-0.277l0.112,-0.277l0.111,-0.277l0.11,-0.277l0.109,-0.276l0.108,-0.277l0.106,-0.277l0.106,-0.277l0.104,-0.276l0.103,-0.277l0.102,-0.276l0.101,-0.276l0.099,-0.276l0.099,-0.276l0.097,-0.275l0.096,-0.276l0.095,-0.275l0.094,-0.274l0.093,-0.275l0.091,-0.274l0.09,-0.274l0.089,-0.273l0.088,-0.273l0.087,-0.273l0.085,-0.272l0.085,-0.272l0.083,-0.272l0.082,-0.271l0.08,-0.27l0.08,-0.27l0.078,-0.27l0.077,-0.269l0.075,-0.268l0.075,-0.268l0.073,-0.267l0.072,-0.267l0.071,-0.266l0.069,-0.265l0.068,-0.265l0.067,-0.264l0.066,-0.264l0.065,-0.262l0.063,-0.262l0.062,-0.261l0.061,-0.261l0.059,-0.259l0.058,-0.259l0.057,-0.258l0.056,-0.257l0.054,-0.256l0.053,-0.255l0.052,-0.255l0.051,-0.253l0.049,-0.253l0.048,-0.251l0.047,-0.25l0.045,-0.25l0.045,-0.248l0.042,-0.247l0.042,-0.247l0.041,-0.245l0.039,-0.244l0.012,-0.077l0.027,-0.165l0.038,-0.241l0.037,-0.241l0.036,-0.238l0.034,-0.238l0.033,-0.236l0.032,-0.236l0.031,-0.233l0.029,-0.233l0.028,-0.231l0.027,-0.23l0.025,-0.228l0.025,-0.227l0.023,-0.226l0.022,-0.224l0.02,-0.222l0.02,-0.221l0.018,-0.22l0.017,-0.217l0.015,-0.217l0.015,-0.214l0.013,-0.214l0.012,-0.211l0.011,-0.21l0.009,-0.208l0.009,-0.206l0.007,-0.204l0.006,-0.203l0.005,-0.201l0.004,-0.199l0.002,-0.197l0.002,-0.195l0,-0.193l-0.001,-0.191l-0.002,-0.19l-0.003,-0.187l-0.004,-0.185l-0.005,-0.184l-0.006,-0.181l-0.007,-0.179l-0.008,-0.177l-0.01,-0.174l-0.01,-0.173l-0.011,-0.17l-0.012,-0.168l-0.013,-0.166l-0.014,-0.163l-0.015,-0.162l-0.016,-0.158l-0.017,-0.157l-0.017,-0.154l-0.019,-0.151l-0.019,-0.149l-0.019,-0.147l-0.021,-0.144l-0.021,-0.142l-0.022,-0.139l-0.023,-0.136l-0.033,-0.19l0.019,0.112l-0.033,-0.187l-0.035,-0.186l0.021,0.114l-0.036,-0.183l-0.037,-0.181l0.024,0.116l-0.038,-0.179l-0.04,-0.177l0.026,0.119l-0.04,-0.174l-0.041,-0.173l0.029,0.121l-0.043,-0.17l-0.043,-0.169l0.032,0.124l-0.045,-0.166l-0.045,-0.164l0.035,0.126l-0.046,-0.161l-0.048,-0.16l0.038,0.129l-0.048,-0.157l-0.049,-0.156l0.041,0.132l-0.049,-0.153l-0.051,-0.151l0.044,0.134l-0.051,-0.148l-0.053,-0.146l0.049,0.136l-0.053,-0.143l-0.054,-0.142l0.052,0.138l-0.054,-0.139l-0.056,-0.137l0.057,0.141l-0.056,-0.134l-0.057,-0.133l0.061,0.143l-0.057,-0.13l-0.059,-0.128l0.066,0.145l-0.059,-0.125l-0.059,-0.124l0.07,0.147l-0.046,-0.092l-0.044,-0.084l-0.04,-0.074l-0.037,-0.063l-0.034,-0.054l-0.029,-0.044l-0.053,-0.013l-0.06,-0.015l0.096,0.024l-0.061,-0.014l-0.062,-0.014l0.096,0.022l-0.063,-0.014l-0.063,-0.013l0.095,0.021l-0.064,-0.014l-0.064,-0.012l0.095,0.019l-0.066,-0.013l-0.065,-0.012l0.094,0.018l-0.067,-0.012l-0.067,-0.011l0.094,0.016l-0.068,-0.011l-0.069,-0.011l0.094,0.016l-0.116,-0.018l0.139,0.021l-0.11,-0.015l-0.111,-0.013l-0.149,-0.014l-0.155,-0.012l0.177,0.014l-0.159,-0.011l-0.161,-0.009l0.173,0.01l-0.164,-0.007l-0.167,-0.005l0.169,0.005l-0.17,-0.003l-0.173,-0.002l0.165,0.002l-0.176,0l-0.179,0.002l0.161,-0.001l-0.183,0.004l-0.185,0.006l0.158,-0.005l-0.19,0.009l-0.191,0.01Zm-5.248,1.171l-0.124,0.051l0.151,-0.062l-0.027,0.011Zm0.082,-0.034l-0.122,0.048l0.148,-0.057l-0.026,0.009Zm0.072,-0.027l-0.12,0.043l0.145,-0.052l-0.025,0.009Zm0.082,-0.029l-0.137,0.045l0.152,-0.05l-0.015,0.005Zm7.021,-0.689l-0.014,-0.027l-0.061,-0.119l0.075,0.146Zm-0.047,-0.088l-0.013,-0.026l-0.062,-0.114l0.075,0.14Zm-0.043,-0.078l-0.013,-0.024l-0.063,-0.11l0.076,0.134Zm-0.04,-0.067l-0.013,-0.023l-0.036,-0.06l0,0l0.049,0.083Zm-0.036,-0.057l-0.013,-0.023l-0.003,-0.004l0,0l0.016,0.027Zm-0.013,-0.026l0,0l0,0l0,0l0,0Zm-0.003,-0.001l0,0l0,0l0,0l0,0Zm0.002,0l0,0l0,0l0,0l0,0Zm-0.004,0l0,0l0,-0.001l-0.03,-0.007l-0.059,-0.015l0.089,0.023Zm0.004,0l0,0l0,0l0,0l0,0Zm-0.003,-0.001l0.001,0.001l0,-0.001l-0.001,0l0,0Zm0.003,0l0,0l0,0l0,0l0,0Zm-0.004,0l0,0l-0.068,-0.019l0.068,0.019Zm0.001,0l0,0l0,0l0,0l0,0Zm0.002,-0.001l0,0.001l0,-0.001l0,0l0,0Zm-0.004,0l0,0l-0.057,-0.016l0.057,0.016Zm0.002,0l0,0l0,0l-0.001,0l0.001,0Zm-0.002,0l0,0l-0.048,-0.014l0.048,0.014Zm0.004,0l0,0l0,0l0,0l0,0Zm-0.003,0l0,0l0,0l0,-0.001l0,0.001Zm-0.002,-0.001l0,0l-0.039,-0.012l0.039,0.012Zm0.004,0l0,0l0,0l0,0l0,0Zm-0.002,0l0,0l0,0l0,0l0,0Zm-0.002,-0.001l0,0l-0.031,-0.009l0.031,0.009Zm0.004,0l0,0l0,0l0,0l0,0Zm-0.003,0l0,0l0,0l0,0l0,0Zm-0.002,-0.001l0,0l-0.023,-0.007l0.023,0.007Zm0.004,0l0,0l0,0l0,0l0,0Zm-0.003,0l0.001,0l0,0l-0.001,0l0,0Zm-0.001,-0.001l0,0l-0.017,-0.005l0.017,0.005Zm0.001,0l0,0l0,0l0,0l0,0Zm0.003,0l0,0l0,0l0,0l0,0Zm-0.005,-0.001l0,0l-0.01,-0.003l0.01,0.003Zm0.001,0l0,0l0,0l0,0l0,0Zm0.003,0l0,0l0,0l0,0l0,0Zm-0.005,-0.001l0,0l-0.003,-0.001l0.003,0.001Zm0.002,0c0,0 0,0 0,0l0,0Zm-0.031,-0.049l0,0.001l0,0l0,-0.001l0,0Zm-0.291,0l-0.021,-0.003l-0.144,-0.018l0.165,0.021Zm0.29,-0.001l0,0l0,0l0,0l0,0Zm-0.001,-0.002l0,0l0,0l0,0l0,0Zm-0.004,-0.001l0,0l0,0l0,0l0,0Zm0.003,0l0,0l0,0l0,0l0,0Zm-0.004,-0.002l0,0l0,0l0,0l0,0Zm0.003,0l0,0l0,0l0,0l0,0Zm-0.001,-0.001l0,0l0,0l0,0l0,0Zm-0.003,-0.001l0,0.001l0,0l0,-0.001l0,0Zm-0.002,0l0,0l0,0l0,0l0,0Zm0.004,-0.001l0,0.001l0,-0.001l0,0l0,0Zm-0.003,0l0,0l0,0l0,0l0,0Zm-0.003,-0.001l0.001,0.001l0,0l-0.001,-0.001l0,0Zm0.005,0l0,0l0,0l0,0l0,0Zm-0.003,-0.001l0,0l0,0l-0.001,0l0.001,0Zm-0.003,0l0,0l-0.004,-0.002l0.004,0.002Zm0.005,0l0.001,0l0,0l-0.001,0l0,0Zm-0.005,0l0,0l0,0l0,0l0,0Zm-0.385,-0.001l-0.021,-0.002l-0.149,-0.016l0.17,0.018Zm0.386,0l0.001,0l0,0l-0.001,0l0,0Zm0.004,0l0,0l0,0l0,-0.001l0,0.001Zm-0.007,-0.001l0,0l-0.007,-0.004l0.007,0.004Zm0.001,0l0,0l0,0l0,0l0,0Zm0.005,-0.001l0,0l0,0l0,0l0,0Zm-0.004,0l0.001,0l0,0l-0.001,0l0,0Zm-0.002,-0.001l0,0l0,0l0,0l0,0Zm-0.001,0l0,0l-0.01,-0.006l0.01,0.006Zm0.002,0l0.001,0l0,0l-0.001,0l0,0Zm-0.002,-0.001l0,0l0,0l0,-0.001l0,0.001Zm0.002,-0.001l0,0.001l0,-0.001l-0.001,0l0.001,0Zm-0.004,0l0,0l-0.013,-0.008l0.013,0.008Zm0,-0.001l0.001,0l0,0l-0.001,0l0,0Zm0.003,0l0,0l0,0l0,0l0,0Zm-0.004,0l0,0l-0.017,-0.012l0.017,0.012Zm0,-0.002l0.001,0.001l0,0l-0.001,-0.001l0,0Zm-0.002,0l0,0l-0.02,-0.014l0.02,0.014Zm0.001,-0.001l0.001,0l0,0l-0.001,0l0,0Zm-0.002,-0.001l0,0l-0.024,-0.017l0.024,0.017Zm0.007,0l0.001,0l-0.012,-0.018l0.011,0.018Zm-0.008,-0.002l-0.001,0l-0.027,-0.019l0.028,0.019Zm0,-0.006l0,0l-0.036,-0.053l0.036,0.053Zm-0.008,-0.007l0.001,0.001l-0.058,-0.081l0.057,0.08Zm137.132,-131.546l-0.282,0.469l-0.283,0.473l-0.284,0.478l-0.283,0.484l-0.284,0.488l-0.285,0.493l-0.284,0.497l-0.285,0.502l-0.285,0.507l-0.286,0.512l-0.285,0.516l-0.286,0.52l-0.285,0.525l-0.286,0.529l-0.286,0.533l-0.286,0.538l-0.286,0.541l-0.286,0.546l-0.286,0.55l-0.286,0.555l-0.286,0.558l-0.286,0.562l-0.285,0.566l-0.286,0.57l-0.285,0.573l-0.286,0.578l-0.285,0.581l-0.285,0.585l-0.285,0.588l-0.284,0.592l-0.284,0.596l-0.285,0.599l-0.283,0.602l-0.284,0.606l-0.283,0.609l-0.283,0.613l-0.282,0.615l-0.282,0.619l-0.282,0.622l-0.282,0.626l-0.281,0.628l-0.28,0.631l-0.28,0.635l-0.28,0.637l-0.279,0.64l-0.279,0.643l-0.278,0.646l-0.278,0.648l-0.277,0.652l-0.277,0.654l-0.276,0.656l-0.276,0.659l-0.275,0.662l-0.274,0.664l-0.274,0.667l-0.274,0.669l-0.272,0.671l-0.272,0.674l-0.271,0.676l-0.271,0.678l-0.27,0.681l-0.269,0.682l-0.269,0.685l-0.268,0.687l-0.267,0.689l-0.267,0.691l-0.265,0.692l-0.265,0.695l-0.264,0.696l-0.264,0.699l-0.262,0.7l-0.262,0.702l-0.261,0.703l-0.26,0.705l-0.259,0.707l-0.259,0.708l-0.257,0.71l-0.257,0.711l-0.071,0.198l-0.183,0.515l-0.254,0.715l-0.252,0.716l-0.251,0.717l-0.251,0.719l-0.249,0.72l-0.248,0.721l-0.248,0.722l-0.246,0.723l-0.246,0.724l-0.244,0.726l-0.244,0.726l-0.242,0.727l-0.242,0.728l-0.24,0.729l-0.24,0.73l-0.238,0.73l-0.237,0.731l-0.236,0.732l-0.235,0.732l-0.234,0.733l-0.232,0.734l-0.232,0.734l-0.23,0.735l-0.23,0.735l-0.228,0.735l-0.227,0.736l-0.225,0.736l-0.225,0.736l-0.223,0.737l-0.222,0.737l-0.221,0.736l-0.22,0.737l-0.218,0.737l-0.217,0.737l-0.216,0.737l-0.215,0.737l-0.213,0.737l-0.212,0.737l-0.211,0.736l-0.209,0.736l-0.208,0.736l-0.207,0.736l-0.205,0.735l-0.204,0.735l-0.202,0.735l-0.201,0.734l-0.2,0.733l-0.199,0.733l-0.197,0.732l-0.195,0.732l-0.194,0.731l-0.193,0.73l-0.191,0.729l-0.19,0.729l-0.188,0.727l-0.187,0.727l-0.185,0.726l-0.184,0.725l-0.182,0.724l-0.181,0.723l-0.179,0.721l-0.177,0.721l-0.177,0.719l-0.174,0.718l-0.173,0.717l-0.171,0.715l-0.17,0.715l-0.168,0.712l-0.167,0.712l-0.165,0.709l-0.163,0.708l-0.162,0.707l-0.16,0.705l-0.158,0.704l-0.156,0.701l-0.155,0.7l-0.154,0.698l-0.151,0.696l-0.15,0.695l-0.148,0.692l-0.147,0.691l-0.144,0.688l-0.143,0.687l-0.141,0.684l-0.14,0.682l-0.137,0.68l-0.136,0.678l-0.134,0.675l-0.132,0.673l-0.131,0.671l-0.128,0.669l-0.127,0.666l-0.125,0.663l-0.123,0.661l-0.121,0.658l-0.119,0.656l-0.118,0.653l-0.115,0.65l-0.114,0.647l-0.111,0.645l-0.11,0.642l-0.108,0.639l-0.106,0.635l-0.104,0.633l-0.102,0.63l-0.093,0.581l0.054,-0.092l0.461,-0.792l0.46,-0.791l0.457,-0.791l0.456,-0.79l0.455,-0.79l0.452,-0.789l0.451,-0.788l0.449,-0.787l0.447,-0.786l0.446,-0.786l0.444,-0.784l0.442,-0.784l0.44,-0.782l0.438,-0.782l0.436,-0.78l0.435,-0.779l0.433,-0.778l0.431,-0.777l0.429,-0.775l0.427,-0.774l0.425,-0.772l0.424,-0.771l0.421,-0.77l0.42,-0.767l0.418,-0.767l0.416,-0.764l0.414,-0.763l0.412,-0.761l0.41,-0.759l0.408,-0.757l0.406,-0.756l0.404,-0.753l0.402,-0.751l0.401,-0.75l0.396,-0.744l0.792,-1.491l0.783,-1.478l0.774,-1.47l0.766,-1.459l0.758,-1.449l0.75,-1.439l0.741,-1.428l0.733,-1.416l0.724,-1.404l0.716,-1.393l0.707,-1.38l0.699,-1.367l0.69,-1.354l0.681,-1.34l0.672,-1.326l0.664,-1.312l0.654,-1.297l0.645,-1.282l0.637,-1.266l0.627,-1.251l0.619,-1.234l0.608,-1.217l1.185,-2.374l0.151,-0.303l0.143,-0.291l0.14,-0.29l0.139,-0.289l0.138,-0.289l0.135,-0.289l0.134,-0.289l0.133,-0.289l0.13,-0.288l0.13,-0.289l0.127,-0.288l0.127,-0.289l0.125,-0.289l0.123,-0.289l0.122,-0.29l0.122,-0.289l0.119,-0.291l0.119,-0.29l0.118,-0.292l0.116,-0.292l0.116,-0.292l0.115,-0.294l0.113,-0.294l0.113,-0.295l0.112,-0.296l0.111,-0.297l0.11,-0.298l0.11,-0.3l0.109,-0.3l0.108,-0.302l0.108,-0.303l0.107,-0.304l0.106,-0.306l0.106,-0.307l0.106,-0.308l0.105,-0.311l0.105,-0.311l0.104,-0.314l0.105,-0.315l0.103,-0.317l0.104,-0.318l0.103,-0.321l0.104,-0.322l0.101,-0.318l0.208,-0.661l0.206,-0.662l0.206,-0.671l0.206,-0.68l0.207,-0.688l0.209,-0.698l0.209,-0.707l0.211,-0.714l0.431,-1.469l0.655,-2.242l0.324,-1.113l0.321,-1.107l0.318,-1.105l0.156,-0.544l0.155,-0.546l0.154,-0.544l0.152,-0.542l0.151,-0.541l0.149,-0.538l0.147,-0.536l0.146,-0.535l0.144,-0.532l0.141,-0.53l0.14,-0.529l0.137,-0.526l0.136,-0.523l0.133,-0.522l0.13,-0.519l0.128,-0.517l0.126,-0.514l0.123,-0.512l0.12,-0.51l0.118,-0.506l0.115,-0.505l0.112,-0.501l0.109,-0.499l0.106,-0.496l0.102,-0.493l0.102,-0.5l0.047,-0.235l0.048,-0.243l0.047,-0.243l0.046,-0.242l0.046,-0.241l0.044,-0.24l0.044,-0.239l0.043,-0.239l0.01,-0.059l0.032,-0.179l0.041,-0.237l0.04,-0.236l0.04,-0.236l0.038,-0.234l0.038,-0.234l0.036,-0.233l0.036,-0.232l0.035,-0.231l0.034,-0.231l0.033,-0.229l0.032,-0.229l0.032,-0.228l0.03,-0.226l0.029,-0.226l0.029,-0.225l0.027,-0.224l0.027,-0.224l0.025,-0.222l0.025,-0.221l0.024,-0.221l0.022,-0.219l0.022,-0.218l0.021,-0.218l0.02,-0.216l0.019,-0.216l0.017,-0.215l0.017,-0.213l0.016,-0.213l0.015,-0.211l0.014,-0.211l0.013,-0.209l0.012,-0.209l0.011,-0.208l0.009,-0.206l0.009,-0.205l0.008,-0.205l0.007,-0.203l0.006,-0.203l0.005,-0.201l0.004,-0.2l0.003,-0.199l0.002,-0.198l0.001,-0.197l-0.001,-0.196l-0.001,-0.195l-0.002,-0.194l-0.003,-0.193l-0.004,-0.191l-0.005,-0.191l-0.006,-0.19l-0.007,-0.188l-0.008,-0.187l-0.009,-0.187l-0.011,-0.185l-0.011,-0.184l-0.012,-0.183l-0.013,-0.182l-0.014,-0.181l-0.015,-0.18l-0.016,-0.178l-0.017,-0.178l-0.018,-0.177l-0.019,-0.175l-0.02,-0.175l-0.021,-0.173l-0.021,-0.173l-0.023,-0.171l-0.024,-0.17l-0.025,-0.17l-0.026,-0.168l-0.026,-0.167l-0.028,-0.167l-0.029,-0.165l-0.029,-0.165l-0.031,-0.163l-0.031,-0.162l-0.033,-0.162l-0.033,-0.16l-0.035,-0.16l-0.035,-0.159l-0.037,-0.158l-0.037,-0.157l-0.038,-0.156l-0.039,-0.155l-0.041,-0.154l-0.041,-0.154l-0.042,-0.153l-0.043,-0.152l-0.045,-0.151l-0.045,-0.151l-0.046,-0.149l-0.047,-0.15l-0.048,-0.148l-0.05,-0.148l-0.05,-0.147l-0.051,-0.146l-0.053,-0.146l-0.053,-0.145l-0.055,-0.145l-0.055,-0.144l-0.057,-0.143l-0.057,-0.143l-0.059,-0.143l-0.06,-0.142l-0.061,-0.142l-0.063,-0.141l-0.063,-0.141l-0.065,-0.14l-0.066,-0.141l-0.067,-0.139l-0.068,-0.14l-0.07,-0.139l-0.07,-0.139l-0.072,-0.139l-0.074,-0.138l-0.075,-0.139l-0.076,-0.138l-0.077,-0.138l-0.079,-0.137l-0.081,-0.138l-0.081,-0.138l-0.084,-0.137l-0.085,-0.138l-0.086,-0.137l-0.088,-0.138l-0.089,-0.137l-0.091,-0.138l-0.093,-0.137l-0.019,-0.028l-0.152,0.249Z"/></svg>